ISO-10303-21;
HEADER;
FILE_DESCRIPTION(('no description'),'unknown implementation level');
FILE_NAME('GS-15-20-BB.stp','  ',('ACE Stoﬂd‰mpfer GmbH'),('CADClick - KiM GmbH - www.kimweb.de'),'unknown preprocess','ACIS','unknown authorization');
FILE_SCHEMA(('CONFIG_CONTROL_DESIGN'));
ENDSEC;
DATA;
#1=DESIGN_CONTEXT('',#159,'design');
#2=APPLICATION_PROTOCOL_DEFINITION('INTERNATIONAL STANDARD','config_control_design',1994,#159);
#3=PRODUCT_CATEGORY_RELATIONSHIP('NONE','NONE',#160,#161);
#4=DATE_AND_TIME(#162,#163);
#5=DATE_TIME_ROLE('creation_date');
#6=DATE_TIME_ROLE('classification_date');
#7=PERSON_AND_ORGANIZATION_ROLE('creator');
#8=PERSON_AND_ORGANIZATION_ROLE('design_supplier');
#9=PERSON_AND_ORGANIZATION_ROLE('classification_officer');
#10=PERSON_AND_ORGANIZATION_ROLE('design_owner');
#11=APPROVAL_PERSON_ORGANIZATION(#164,#165,#166);
#12=APPROVAL_DATE_TIME(#4,#165);
#13=CC_DESIGN_APPROVAL(#165,(#167,#168,#169));
#14=CC_DESIGN_DATE_AND_TIME_ASSIGNMENT(#4,#5,(#169));
#15=CC_DESIGN_DATE_AND_TIME_ASSIGNMENT(#4,#6,(#167));
#16=CC_DESIGN_PERSON_AND_ORGANIZATION_ASSIGNMENT(#164,#10,(#170));
#17=CC_DESIGN_PERSON_AND_ORGANIZATION_ASSIGNMENT(#164,#7,(#169));
#18=CC_DESIGN_PERSON_AND_ORGANIZATION_ASSIGNMENT(#164,#7,(#168));
#19=CC_DESIGN_PERSON_AND_ORGANIZATION_ASSIGNMENT(#164,#8,(#168));
#20=CC_DESIGN_SECURITY_CLASSIFICATION(#167,(#168));
#21=CC_DESIGN_PERSON_AND_ORGANIZATION_ASSIGNMENT(#164,#9,(#167));
#22=SHAPE_DEFINITION_REPRESENTATION(#171,#172);
#23=DESIGN_CONTEXT('',#173,'design');
#24=APPLICATION_PROTOCOL_DEFINITION('INTERNATIONAL STANDARD','config_control_design',1994,#173);
#25=PRODUCT_CATEGORY_RELATIONSHIP('NONE','NONE',#174,#175);
#26=DATE_AND_TIME(#176,#177);
#27=DATE_TIME_ROLE('creation_date');
#28=DATE_TIME_ROLE('classification_date');
#29=PERSON_AND_ORGANIZATION_ROLE('creator');
#30=PERSON_AND_ORGANIZATION_ROLE('design_supplier');
#31=PERSON_AND_ORGANIZATION_ROLE('classification_officer');
#32=PERSON_AND_ORGANIZATION_ROLE('design_owner');
#33=APPROVAL_PERSON_ORGANIZATION(#178,#179,#180);
#34=APPROVAL_DATE_TIME(#26,#179);
#35=CC_DESIGN_APPROVAL(#179,(#181,#182,#183));
#36=CC_DESIGN_DATE_AND_TIME_ASSIGNMENT(#26,#27,(#183));
#37=CC_DESIGN_DATE_AND_TIME_ASSIGNMENT(#26,#28,(#181));
#38=CC_DESIGN_PERSON_AND_ORGANIZATION_ASSIGNMENT(#178,#32,(#184));
#39=CC_DESIGN_PERSON_AND_ORGANIZATION_ASSIGNMENT(#178,#29,(#183));
#40=CC_DESIGN_PERSON_AND_ORGANIZATION_ASSIGNMENT(#178,#29,(#182));
#41=CC_DESIGN_PERSON_AND_ORGANIZATION_ASSIGNMENT(#178,#30,(#182));
#42=CC_DESIGN_SECURITY_CLASSIFICATION(#181,(#182));
#43=CC_DESIGN_PERSON_AND_ORGANIZATION_ASSIGNMENT(#178,#31,(#181));
#44=SHAPE_DEFINITION_REPRESENTATION(#185,#186);
#45=DESIGN_CONTEXT('',#187,'design');
#46=APPLICATION_PROTOCOL_DEFINITION('INTERNATIONAL STANDARD','config_control_design',1994,#187);
#47=PRODUCT_CATEGORY_RELATIONSHIP('NONE','NONE',#188,#189);
#48=DATE_AND_TIME(#190,#191);
#49=DATE_TIME_ROLE('creation_date');
#50=DATE_TIME_ROLE('classification_date');
#51=PERSON_AND_ORGANIZATION_ROLE('creator');
#52=PERSON_AND_ORGANIZATION_ROLE('design_supplier');
#53=PERSON_AND_ORGANIZATION_ROLE('classification_officer');
#54=PERSON_AND_ORGANIZATION_ROLE('design_owner');
#55=APPROVAL_PERSON_ORGANIZATION(#192,#193,#194);
#56=APPROVAL_DATE_TIME(#48,#193);
#57=CC_DESIGN_APPROVAL(#193,(#195,#196,#197));
#58=CC_DESIGN_DATE_AND_TIME_ASSIGNMENT(#48,#49,(#197));
#59=CC_DESIGN_DATE_AND_TIME_ASSIGNMENT(#48,#50,(#195));
#60=CC_DESIGN_PERSON_AND_ORGANIZATION_ASSIGNMENT(#192,#54,(#198));
#61=CC_DESIGN_PERSON_AND_ORGANIZATION_ASSIGNMENT(#192,#51,(#197));
#62=CC_DESIGN_PERSON_AND_ORGANIZATION_ASSIGNMENT(#192,#51,(#196));
#63=CC_DESIGN_PERSON_AND_ORGANIZATION_ASSIGNMENT(#192,#52,(#196));
#64=CC_DESIGN_SECURITY_CLASSIFICATION(#195,(#196));
#65=CC_DESIGN_PERSON_AND_ORGANIZATION_ASSIGNMENT(#192,#53,(#195));
#66=SHAPE_DEFINITION_REPRESENTATION(#199,#200);
#67=DESIGN_CONTEXT('',#201,'design');
#68=APPLICATION_PROTOCOL_DEFINITION('INTERNATIONAL STANDARD','config_control_design',1994,#201);
#69=PRODUCT_CATEGORY_RELATIONSHIP('NONE','NONE',#202,#203);
#70=DATE_AND_TIME(#204,#205);
#71=DATE_TIME_ROLE('creation_date');
#72=DATE_TIME_ROLE('classification_date');
#73=PERSON_AND_ORGANIZATION_ROLE('creator');
#74=PERSON_AND_ORGANIZATION_ROLE('design_supplier');
#75=PERSON_AND_ORGANIZATION_ROLE('classification_officer');
#76=PERSON_AND_ORGANIZATION_ROLE('design_owner');
#77=APPROVAL_PERSON_ORGANIZATION(#206,#207,#208);
#78=APPROVAL_DATE_TIME(#70,#207);
#79=CC_DESIGN_APPROVAL(#207,(#209,#210,#211));
#80=CC_DESIGN_DATE_AND_TIME_ASSIGNMENT(#70,#71,(#211));
#81=CC_DESIGN_DATE_AND_TIME_ASSIGNMENT(#70,#72,(#209));
#82=CC_DESIGN_PERSON_AND_ORGANIZATION_ASSIGNMENT(#206,#76,(#212));
#83=CC_DESIGN_PERSON_AND_ORGANIZATION_ASSIGNMENT(#206,#73,(#211));
#84=CC_DESIGN_PERSON_AND_ORGANIZATION_ASSIGNMENT(#206,#73,(#210));
#85=CC_DESIGN_PERSON_AND_ORGANIZATION_ASSIGNMENT(#206,#74,(#210));
#86=CC_DESIGN_SECURITY_CLASSIFICATION(#209,(#210));
#87=CC_DESIGN_PERSON_AND_ORGANIZATION_ASSIGNMENT(#206,#75,(#209));
#88=SHAPE_DEFINITION_REPRESENTATION(#213,#214);
#89=DESIGN_CONTEXT('',#215,'design');
#90=APPLICATION_PROTOCOL_DEFINITION('INTERNATIONAL STANDARD','config_control_design',1994,#215);
#91=PRODUCT_CATEGORY_RELATIONSHIP('NONE','NONE',#216,#217);
#92=DATE_AND_TIME(#218,#219);
#93=DATE_TIME_ROLE('creation_date');
#94=DATE_TIME_ROLE('classification_date');
#95=PERSON_AND_ORGANIZATION_ROLE('creator');
#96=PERSON_AND_ORGANIZATION_ROLE('design_supplier');
#97=PERSON_AND_ORGANIZATION_ROLE('classification_officer');
#98=PERSON_AND_ORGANIZATION_ROLE('design_owner');
#99=APPROVAL_PERSON_ORGANIZATION(#220,#221,#222);
#100=APPROVAL_DATE_TIME(#92,#221);
#101=CC_DESIGN_APPROVAL(#221,(#223,#224,#225));
#102=CC_DESIGN_DATE_AND_TIME_ASSIGNMENT(#92,#93,(#225));
#103=CC_DESIGN_DATE_AND_TIME_ASSIGNMENT(#92,#94,(#223));
#104=CC_DESIGN_PERSON_AND_ORGANIZATION_ASSIGNMENT(#220,#98,(#226));
#105=CC_DESIGN_PERSON_AND_ORGANIZATION_ASSIGNMENT(#220,#95,(#225));
#106=CC_DESIGN_PERSON_AND_ORGANIZATION_ASSIGNMENT(#220,#95,(#224));
#107=CC_DESIGN_PERSON_AND_ORGANIZATION_ASSIGNMENT(#220,#96,(#224));
#108=CC_DESIGN_SECURITY_CLASSIFICATION(#223,(#224));
#109=CC_DESIGN_PERSON_AND_ORGANIZATION_ASSIGNMENT(#220,#97,(#223));
#110=SHAPE_DEFINITION_REPRESENTATION(#227,#228);
#111=DESIGN_CONTEXT('',#229,'design');
#112=APPLICATION_PROTOCOL_DEFINITION('INTERNATIONAL STANDARD','config_control_design',1994,#229);
#113=PRODUCT_CATEGORY_RELATIONSHIP('NONE','NONE',#230,#231);
#114=DATE_AND_TIME(#232,#233);
#115=DATE_TIME_ROLE('creation_date');
#116=DATE_TIME_ROLE('classification_date');
#117=PERSON_AND_ORGANIZATION_ROLE('creator');
#118=PERSON_AND_ORGANIZATION_ROLE('design_supplier');
#119=PERSON_AND_ORGANIZATION_ROLE('classification_officer');
#120=PERSON_AND_ORGANIZATION_ROLE('design_owner');
#121=APPROVAL_PERSON_ORGANIZATION(#234,#235,#236);
#122=APPROVAL_DATE_TIME(#114,#235);
#123=CC_DESIGN_APPROVAL(#235,(#237,#238,#239));
#124=CC_DESIGN_DATE_AND_TIME_ASSIGNMENT(#114,#115,(#239));
#125=CC_DESIGN_DATE_AND_TIME_ASSIGNMENT(#114,#116,(#237));
#126=CC_DESIGN_PERSON_AND_ORGANIZATION_ASSIGNMENT(#234,#120,(#240));
#127=CC_DESIGN_PERSON_AND_ORGANIZATION_ASSIGNMENT(#234,#117,(#239));
#128=CC_DESIGN_PERSON_AND_ORGANIZATION_ASSIGNMENT(#234,#117,(#238));
#129=CC_DESIGN_PERSON_AND_ORGANIZATION_ASSIGNMENT(#234,#118,(#238));
#130=CC_DESIGN_SECURITY_CLASSIFICATION(#237,(#238));
#131=CC_DESIGN_PERSON_AND_ORGANIZATION_ASSIGNMENT(#234,#119,(#237));
#132=SHAPE_DEFINITION_REPRESENTATION(#241,#242);
#133=DESIGN_CONTEXT('',#243,'design');
#134=APPLICATION_PROTOCOL_DEFINITION('INTERNATIONAL STANDARD','config_control_design',1994,#243);
#135=PRODUCT_CATEGORY_RELATIONSHIP('NONE','NONE',#244,#245);
#136=DATE_AND_TIME(#246,#247);
#137=DATE_TIME_ROLE('creation_date');
#138=DATE_TIME_ROLE('classification_date');
#139=PERSON_AND_ORGANIZATION_ROLE('creator');
#140=PERSON_AND_ORGANIZATION_ROLE('design_supplier');
#141=PERSON_AND_ORGANIZATION_ROLE('classification_officer');
#142=PERSON_AND_ORGANIZATION_ROLE('design_owner');
#143=APPROVAL_PERSON_ORGANIZATION(#248,#249,#250);
#144=APPROVAL_DATE_TIME(#136,#249);
#145=CC_DESIGN_APPROVAL(#249,(#251,#252,#253));
#146=CC_DESIGN_DATE_AND_TIME_ASSIGNMENT(#136,#137,(#253));
#147=CC_DESIGN_DATE_AND_TIME_ASSIGNMENT(#136,#138,(#251));
#148=CC_DESIGN_PERSON_AND_ORGANIZATION_ASSIGNMENT(#248,#142,(#254));
#149=CC_DESIGN_PERSON_AND_ORGANIZATION_ASSIGNMENT(#248,#139,(#253));
#150=CC_DESIGN_PERSON_AND_ORGANIZATION_ASSIGNMENT(#248,#139,(#252));
#151=CC_DESIGN_PERSON_AND_ORGANIZATION_ASSIGNMENT(#248,#140,(#252));
#152=CC_DESIGN_SECURITY_CLASSIFICATION(#251,(#252));
#153=CC_DESIGN_PERSON_AND_ORGANIZATION_ASSIGNMENT(#248,#141,(#251));
#154=SHAPE_DEFINITION_REPRESENTATION(#255,#256);
#155= (GEOMETRIC_REPRESENTATION_CONTEXT(3)GLOBAL_UNCERTAINTY_ASSIGNED_CONTEXT((#259))GLOBAL_UNIT_ASSIGNED_CONTEXT((#261,#262,#263))REPRESENTATION_CONTEXT('NONE','WORKSPACE'));
#159=APPLICATION_CONTEXT('CONFIGURATION CONTROLLED 3D DESIGNS OF MECHANICAL PARTS AND ASSEMBLIES');
#160=PRODUCT_CATEGORY('part','NONE');
#161=PRODUCT_RELATED_PRODUCT_CATEGORY('detail',' ',(#170));
#162=CALENDAR_DATE(2018,10,8);
#163=LOCAL_TIME(22,6,30.0,#265);
#164=PERSON_AND_ORGANIZATION(#266,#267);
#165=APPROVAL(#268,'SOLID MODEL');
#166=APPROVAL_ROLE('APPROVED');
#167=SECURITY_CLASSIFICATION('','',#269);
#168=PRODUCT_DEFINITION_FORMATION_WITH_SPECIFIED_SOURCE(' ','NONE',#170,.NOT_KNOWN.);
#169=PRODUCT_DEFINITION('NONE','NONE',#168,#1);
#170=PRODUCT('1','1','PART-1-DESC',(#270));
#171=PRODUCT_DEFINITION_SHAPE('NONE','NONE',#169);
#172=ADVANCED_BREP_SHAPE_REPRESENTATION('1',(#271,#272),#155);
#173=APPLICATION_CONTEXT('CONFIGURATION CONTROLLED 3D DESIGNS OF MECHANICAL PARTS AND ASSEMBLIES');
#174=PRODUCT_CATEGORY('part','NONE');
#175=PRODUCT_RELATED_PRODUCT_CATEGORY('detail',' ',(#184));
#176=CALENDAR_DATE(2018,10,8);
#177=LOCAL_TIME(22,6,30.0,#273);
#178=PERSON_AND_ORGANIZATION(#274,#275);
#179=APPROVAL(#276,'SOLID MODEL');
#180=APPROVAL_ROLE('APPROVED');
#181=SECURITY_CLASSIFICATION('','',#277);
#182=PRODUCT_DEFINITION_FORMATION_WITH_SPECIFIED_SOURCE(' ','NONE',#184,.NOT_KNOWN.);
#183=PRODUCT_DEFINITION('NONE','NONE',#182,#23);
#184=PRODUCT('2','2','PART-2-DESC',(#278));
#185=PRODUCT_DEFINITION_SHAPE('NONE','NONE',#183);
#186=ADVANCED_BREP_SHAPE_REPRESENTATION('2',(#279,#280),#155);
#187=APPLICATION_CONTEXT('CONFIGURATION CONTROLLED 3D DESIGNS OF MECHANICAL PARTS AND ASSEMBLIES');
#188=PRODUCT_CATEGORY('part','NONE');
#189=PRODUCT_RELATED_PRODUCT_CATEGORY('detail',' ',(#198));
#190=CALENDAR_DATE(2018,10,8);
#191=LOCAL_TIME(22,6,30.0,#281);
#192=PERSON_AND_ORGANIZATION(#282,#283);
#193=APPROVAL(#284,'SOLID MODEL');
#194=APPROVAL_ROLE('APPROVED');
#195=SECURITY_CLASSIFICATION('','',#285);
#196=PRODUCT_DEFINITION_FORMATION_WITH_SPECIFIED_SOURCE(' ','NONE',#198,.NOT_KNOWN.);
#197=PRODUCT_DEFINITION('NONE','NONE',#196,#45);
#198=PRODUCT('3','3','PART-3-DESC',(#286));
#199=PRODUCT_DEFINITION_SHAPE('NONE','NONE',#197);
#200=ADVANCED_BREP_SHAPE_REPRESENTATION('3',(#287,#288),#155);
#201=APPLICATION_CONTEXT('CONFIGURATION CONTROLLED 3D DESIGNS OF MECHANICAL PARTS AND ASSEMBLIES');
#202=PRODUCT_CATEGORY('part','NONE');
#203=PRODUCT_RELATED_PRODUCT_CATEGORY('detail',' ',(#212));
#204=CALENDAR_DATE(2018,10,8);
#205=LOCAL_TIME(22,6,30.0,#289);
#206=PERSON_AND_ORGANIZATION(#290,#291);
#207=APPROVAL(#292,'SOLID MODEL');
#208=APPROVAL_ROLE('APPROVED');
#209=SECURITY_CLASSIFICATION('','',#293);
#210=PRODUCT_DEFINITION_FORMATION_WITH_SPECIFIED_SOURCE(' ','NONE',#212,.NOT_KNOWN.);
#211=PRODUCT_DEFINITION('NONE','NONE',#210,#67);
#212=PRODUCT('4','4','PART-4-DESC',(#294));
#213=PRODUCT_DEFINITION_SHAPE('NONE','NONE',#211);
#214=ADVANCED_BREP_SHAPE_REPRESENTATION('4',(#295,#296),#155);
#215=APPLICATION_CONTEXT('CONFIGURATION CONTROLLED 3D DESIGNS OF MECHANICAL PARTS AND ASSEMBLIES');
#216=PRODUCT_CATEGORY('part','NONE');
#217=PRODUCT_RELATED_PRODUCT_CATEGORY('detail',' ',(#226));
#218=CALENDAR_DATE(2018,10,8);
#219=LOCAL_TIME(22,6,30.0,#297);
#220=PERSON_AND_ORGANIZATION(#298,#299);
#221=APPROVAL(#300,'SOLID MODEL');
#222=APPROVAL_ROLE('APPROVED');
#223=SECURITY_CLASSIFICATION('','',#301);
#224=PRODUCT_DEFINITION_FORMATION_WITH_SPECIFIED_SOURCE(' ','NONE',#226,.NOT_KNOWN.);
#225=PRODUCT_DEFINITION('NONE','NONE',#224,#89);
#226=PRODUCT('5','5','PART-5-DESC',(#302));
#227=PRODUCT_DEFINITION_SHAPE('NONE','NONE',#225);
#228=ADVANCED_BREP_SHAPE_REPRESENTATION('5',(#303,#304),#155);
#229=APPLICATION_CONTEXT('CONFIGURATION CONTROLLED 3D DESIGNS OF MECHANICAL PARTS AND ASSEMBLIES');
#230=PRODUCT_CATEGORY('part','NONE');
#231=PRODUCT_RELATED_PRODUCT_CATEGORY('detail',' ',(#240));
#232=CALENDAR_DATE(2018,10,8);
#233=LOCAL_TIME(22,6,30.0,#305);
#234=PERSON_AND_ORGANIZATION(#306,#307);
#235=APPROVAL(#308,'SOLID MODEL');
#236=APPROVAL_ROLE('APPROVED');
#237=SECURITY_CLASSIFICATION('','',#309);
#238=PRODUCT_DEFINITION_FORMATION_WITH_SPECIFIED_SOURCE(' ','NONE',#240,.NOT_KNOWN.);
#239=PRODUCT_DEFINITION('NONE','NONE',#238,#111);
#240=PRODUCT('6','6','PART-6-DESC',(#310));
#241=PRODUCT_DEFINITION_SHAPE('NONE','NONE',#239);
#242=ADVANCED_BREP_SHAPE_REPRESENTATION('6',(#311,#312),#155);
#243=APPLICATION_CONTEXT('CONFIGURATION CONTROLLED 3D DESIGNS OF MECHANICAL PARTS AND ASSEMBLIES');
#244=PRODUCT_CATEGORY('part','NONE');
#245=PRODUCT_RELATED_PRODUCT_CATEGORY('detail',' ',(#254));
#246=CALENDAR_DATE(2018,10,8);
#247=LOCAL_TIME(22,6,30.0,#313);
#248=PERSON_AND_ORGANIZATION(#314,#315);
#249=APPROVAL(#316,'SOLID MODEL');
#250=APPROVAL_ROLE('APPROVED');
#251=SECURITY_CLASSIFICATION('','',#317);
#252=PRODUCT_DEFINITION_FORMATION_WITH_SPECIFIED_SOURCE(' ','NONE',#254,.NOT_KNOWN.);
#253=PRODUCT_DEFINITION('NONE','NONE',#252,#133);
#254=PRODUCT('7','7','PART-7-DESC',(#318));
#255=PRODUCT_DEFINITION_SHAPE('NONE','NONE',#253);
#256=ADVANCED_BREP_SHAPE_REPRESENTATION('7',(#319,#320),#155);
#259=UNCERTAINTY_MEASURE_WITH_UNIT(LENGTH_MEASURE(1.0E-006),#261,'','');
#261= (CONVERSION_BASED_UNIT('MILLIMETRE',#323)LENGTH_UNIT()NAMED_UNIT(#326));
#262= (NAMED_UNIT(#328)PLANE_ANGLE_UNIT()SI_UNIT($,.RADIAN.));
#263= (NAMED_UNIT(#328)SOLID_ANGLE_UNIT()SI_UNIT($,.STERADIAN.));
#265=COORDINATED_UNIVERSAL_TIME_OFFSET(3,0,.BEHIND.);
#266=PERSON('','UNSPECIFIED',$,$,$,$);
#267=ORGANIZATION('UNSPECIFIED','UNSPECIFIED','UNSPECIFIED');
#268=APPROVAL_STATUS('approved');
#269=SECURITY_CLASSIFICATION_LEVEL('unclassified');
#270=MECHANICAL_CONTEXT('',#159,'mechanical');
#271=MANIFOLD_SOLID_BREP('1',#334);
#272=AXIS2_PLACEMENT_3D('',#335,#336,#337);
#273=COORDINATED_UNIVERSAL_TIME_OFFSET(3,0,.BEHIND.);
#274=PERSON('','UNSPECIFIED',$,$,$,$);
#275=ORGANIZATION('UNSPECIFIED','UNSPECIFIED','UNSPECIFIED');
#276=APPROVAL_STATUS('approved');
#277=SECURITY_CLASSIFICATION_LEVEL('unclassified');
#278=MECHANICAL_CONTEXT('',#173,'mechanical');
#279=MANIFOLD_SOLID_BREP('2',#338);
#280=AXIS2_PLACEMENT_3D('',#339,#340,#341);
#281=COORDINATED_UNIVERSAL_TIME_OFFSET(3,0,.BEHIND.);
#282=PERSON('','UNSPECIFIED',$,$,$,$);
#283=ORGANIZATION('UNSPECIFIED','UNSPECIFIED','UNSPECIFIED');
#284=APPROVAL_STATUS('approved');
#285=SECURITY_CLASSIFICATION_LEVEL('unclassified');
#286=MECHANICAL_CONTEXT('',#187,'mechanical');
#287=MANIFOLD_SOLID_BREP('3',#342);
#288=AXIS2_PLACEMENT_3D('',#343,#344,#345);
#289=COORDINATED_UNIVERSAL_TIME_OFFSET(3,0,.BEHIND.);
#290=PERSON('','UNSPECIFIED',$,$,$,$);
#291=ORGANIZATION('UNSPECIFIED','UNSPECIFIED','UNSPECIFIED');
#292=APPROVAL_STATUS('approved');
#293=SECURITY_CLASSIFICATION_LEVEL('unclassified');
#294=MECHANICAL_CONTEXT('',#201,'mechanical');
#295=MANIFOLD_SOLID_BREP('4',#346);
#296=AXIS2_PLACEMENT_3D('',#347,#348,#349);
#297=COORDINATED_UNIVERSAL_TIME_OFFSET(3,0,.BEHIND.);
#298=PERSON('','UNSPECIFIED',$,$,$,$);
#299=ORGANIZATION('UNSPECIFIED','UNSPECIFIED','UNSPECIFIED');
#300=APPROVAL_STATUS('approved');
#301=SECURITY_CLASSIFICATION_LEVEL('unclassified');
#302=MECHANICAL_CONTEXT('',#215,'mechanical');
#303=MANIFOLD_SOLID_BREP('5',#350);
#304=AXIS2_PLACEMENT_3D('',#351,#352,#353);
#305=COORDINATED_UNIVERSAL_TIME_OFFSET(3,0,.BEHIND.);
#306=PERSON('','UNSPECIFIED',$,$,$,$);
#307=ORGANIZATION('UNSPECIFIED','UNSPECIFIED','UNSPECIFIED');
#308=APPROVAL_STATUS('approved');
#309=SECURITY_CLASSIFICATION_LEVEL('unclassified');
#310=MECHANICAL_CONTEXT('',#229,'mechanical');
#311=MANIFOLD_SOLID_BREP('6',#354);
#312=AXIS2_PLACEMENT_3D('',#355,#356,#357);
#313=COORDINATED_UNIVERSAL_TIME_OFFSET(3,0,.BEHIND.);
#314=PERSON('','UNSPECIFIED',$,$,$,$);
#315=ORGANIZATION('UNSPECIFIED','UNSPECIFIED','UNSPECIFIED');
#316=APPROVAL_STATUS('approved');
#317=SECURITY_CLASSIFICATION_LEVEL('unclassified');
#318=MECHANICAL_CONTEXT('',#243,'mechanical');
#319=MANIFOLD_SOLID_BREP('7',#358);
#320=AXIS2_PLACEMENT_3D('',#359,#360,#361);
#323=LENGTH_MEASURE_WITH_UNIT(LENGTH_MEASURE(1.0),#362);
#326=DIMENSIONAL_EXPONENTS(1.0,0.0,0.0,0.0,0.0,0.0,0.0);
#328=DIMENSIONAL_EXPONENTS(0.0,0.0,0.0,0.0,0.0,0.0,0.0);
#334=CLOSED_SHELL('',(#363,#364,#365,#366,#367,#368,#369,#370,#371,#372,#373,#374,#375,#376,#377,#378,#379));
#335=CARTESIAN_POINT('',(0.0,0.0,0.0));
#336=DIRECTION('',(0.0,0.0,1.0));
#337=DIRECTION('',(1.0,0.0,0.0));
#338=CLOSED_SHELL('',(#380,#381,#382,#383,#384,#385));
#339=CARTESIAN_POINT('',(0.0,0.0,0.0));
#340=DIRECTION('',(0.0,0.0,1.0));
#341=DIRECTION('',(1.0,0.0,0.0));
#342=CLOSED_SHELL('',(#386,#387,#388,#389,#390,#391));
#343=CARTESIAN_POINT('',(0.0,0.0,0.0));
#344=DIRECTION('',(0.0,0.0,1.0));
#345=DIRECTION('',(1.0,0.0,0.0));
#346=CLOSED_SHELL('',(#392,#393,#394,#395));
#347=CARTESIAN_POINT('',(0.0,0.0,0.0));
#348=DIRECTION('',(0.0,0.0,1.0));
#349=DIRECTION('',(1.0,0.0,0.0));
#350=CLOSED_SHELL('',(#396,#397,#398,#399,#400,#401));
#351=CARTESIAN_POINT('',(0.0,0.0,0.0));
#352=DIRECTION('',(0.0,0.0,1.0));
#353=DIRECTION('',(1.0,0.0,0.0));
#354=CLOSED_SHELL('',(#402,#403,#404,#405,#406,#407));
#355=CARTESIAN_POINT('',(0.0,0.0,0.0));
#356=DIRECTION('',(0.0,0.0,1.0));
#357=DIRECTION('',(1.0,0.0,0.0));
#358=CLOSED_SHELL('',(#408,#409,#410,#411,#412,#413));
#359=CARTESIAN_POINT('',(0.0,0.0,0.0));
#360=DIRECTION('',(0.0,0.0,1.0));
#361=DIRECTION('',(1.0,0.0,0.0));
#362= (NAMED_UNIT(#326)LENGTH_UNIT()SI_UNIT(.MILLI.,.METRE.));
#363=ADVANCED_FACE('',(#415),#416,.T.);
#364=ADVANCED_FACE('',(#417),#418,.T.);
#365=ADVANCED_FACE('',(#419),#420,.T.);
#366=ADVANCED_FACE('',(#421),#422,.T.);
#367=ADVANCED_FACE('',(#423),#424,.T.);
#368=ADVANCED_FACE('',(#425),#426,.T.);
#369=ADVANCED_FACE('',(#427),#428,.T.);
#370=ADVANCED_FACE('',(#429),#430,.T.);
#371=ADVANCED_FACE('',(#431),#432,.T.);
#372=ADVANCED_FACE('',(#433),#434,.T.);
#373=ADVANCED_FACE('',(#435,#436),#437,.T.);
#374=ADVANCED_FACE('',(#438),#439,.T.);
#375=ADVANCED_FACE('',(#440),#441,.T.);
#376=ADVANCED_FACE('',(#442),#443,.T.);
#377=ADVANCED_FACE('',(#444),#445,.T.);
#378=ADVANCED_FACE('',(#446),#447,.T.);
#379=ADVANCED_FACE('',(#448),#449,.T.);
#380=ADVANCED_FACE('',(#450),#451,.T.);
#381=ADVANCED_FACE('',(#452),#453,.T.);
#382=ADVANCED_FACE('',(#454),#455,.T.);
#383=ADVANCED_FACE('',(#456),#457,.T.);
#384=ADVANCED_FACE('',(#458),#459,.T.);
#385=ADVANCED_FACE('',(#460),#461,.T.);
#386=ADVANCED_FACE('',(#462),#463,.T.);
#387=ADVANCED_FACE('',(#464),#465,.T.);
#388=ADVANCED_FACE('',(#466),#467,.T.);
#389=ADVANCED_FACE('',(#468),#469,.T.);
#390=ADVANCED_FACE('',(#470),#471,.T.);
#391=ADVANCED_FACE('',(#472),#473,.T.);
#392=ADVANCED_FACE('',(#474),#475,.T.);
#393=ADVANCED_FACE('',(#476),#477,.T.);
#394=ADVANCED_FACE('',(#478),#479,.T.);
#395=ADVANCED_FACE('',(#480),#481,.T.);
#396=ADVANCED_FACE('',(#482),#483,.T.);
#397=ADVANCED_FACE('',(#484),#485,.T.);
#398=ADVANCED_FACE('',(#486),#487,.T.);
#399=ADVANCED_FACE('',(#488),#489,.T.);
#400=ADVANCED_FACE('',(#490),#491,.T.);
#401=ADVANCED_FACE('',(#492),#493,.T.);
#402=ADVANCED_FACE('',(#494),#495,.T.);
#403=ADVANCED_FACE('',(#496),#497,.T.);
#404=ADVANCED_FACE('',(#498),#499,.T.);
#405=ADVANCED_FACE('',(#500),#501,.T.);
#406=ADVANCED_FACE('',(#502),#503,.T.);
#407=ADVANCED_FACE('',(#504),#505,.T.);
#408=ADVANCED_FACE('',(#506),#507,.T.);
#409=ADVANCED_FACE('',(#508),#509,.T.);
#410=ADVANCED_FACE('',(#510),#511,.T.);
#411=ADVANCED_FACE('',(#512),#513,.T.);
#412=ADVANCED_FACE('',(#514),#515,.T.);
#413=ADVANCED_FACE('',(#516),#517,.T.);
#415=FACE_OUTER_BOUND('',#518,.T.);
#416=CYLINDRICAL_SURFACE('',#519,6.0);
#417=FACE_OUTER_BOUND('',#520,.T.);
#418=TOROIDAL_SURFACE('',#521,6.0,1.5);
#419=FACE_OUTER_BOUND('',#522,.T.);
#420=CYLINDRICAL_SURFACE('',#523,7.5);
#421=FACE_OUTER_BOUND('',#524,.T.);
#422=TOROIDAL_SURFACE('',#525,6.0,1.5);
#423=FACE_OUTER_BOUND('',#526,.T.);
#424=CYLINDRICAL_SURFACE('',#527,6.0);
#425=FACE_OUTER_BOUND('',#528,.T.);
#426=CYLINDRICAL_SURFACE('',#529,2.5);
#427=FACE_OUTER_BOUND('',#530,.T.);
#428=CONICAL_SURFACE('',#531,2.25,0.785398163397448);
#429=FACE_OUTER_BOUND('',#532,.T.);
#430=PLANE('',#533);
#431=FACE_OUTER_BOUND('',#534,.T.);
#432=CONICAL_SURFACE('',#535,2.25,0.785398163397448);
#433=FACE_OUTER_BOUND('',#536,.T.);
#434=CYLINDRICAL_SURFACE('',#537,2.5);
#435=FACE_BOUND('',#538,.T.);
#436=FACE_OUTER_BOUND('',#539,.T.);
#437=PLANE('',#540);
#438=FACE_OUTER_BOUND('',#541,.T.);
#439=CYLINDRICAL_SURFACE('',#542,6.0);
#440=FACE_OUTER_BOUND('',#543,.T.);
#441=TOROIDAL_SURFACE('',#544,6.0,1.5);
#442=FACE_OUTER_BOUND('',#545,.T.);
#443=CYLINDRICAL_SURFACE('',#546,7.5);
#444=FACE_OUTER_BOUND('',#547,.T.);
#445=TOROIDAL_SURFACE('',#548,6.0,1.5);
#446=FACE_OUTER_BOUND('',#549,.T.);
#447=CYLINDRICAL_SURFACE('',#550,6.0);
#448=FACE_OUTER_BOUND('',#551,.T.);
#449=PLANE('',#552);
#450=FACE_OUTER_BOUND('',#553,.T.);
#451=CYLINDRICAL_SURFACE('',#554,2.5);
#452=FACE_OUTER_BOUND('',#555,.T.);
#453=CONICAL_SURFACE('',#556,2.25,0.785398163397448);
#454=FACE_OUTER_BOUND('',#557,.T.);
#455=PLANE('',#558);
#456=FACE_OUTER_BOUND('',#559,.T.);
#457=CONICAL_SURFACE('',#560,2.25,0.785398163397448);
#458=FACE_OUTER_BOUND('',#561,.T.);
#459=CYLINDRICAL_SURFACE('',#562,2.5);
#460=FACE_OUTER_BOUND('',#563,.T.);
#461=PLANE('',#564);
#462=FACE_OUTER_BOUND('',#565,.T.);
#463=CYLINDRICAL_SURFACE('',#566,2.5);
#464=FACE_OUTER_BOUND('',#567,.T.);
#465=CONICAL_SURFACE('',#568,2.25,0.785398163397448);
#466=FACE_OUTER_BOUND('',#569,.T.);
#467=PLANE('',#570);
#468=FACE_OUTER_BOUND('',#571,.T.);
#469=CONICAL_SURFACE('',#572,2.25,0.785398163397448);
#470=FACE_OUTER_BOUND('',#573,.T.);
#471=CYLINDRICAL_SURFACE('',#574,2.5);
#472=FACE_OUTER_BOUND('',#575,.T.);
#473=PLANE('',#576);
#474=FACE_OUTER_BOUND('',#577,.T.);
#475=CYLINDRICAL_SURFACE('',#578,3.0);
#476=FACE_OUTER_BOUND('',#579,.T.);
#477=CYLINDRICAL_SURFACE('',#580,3.0);
#478=FACE_OUTER_BOUND('',#581,.T.);
#479=PLANE('',#582);
#480=FACE_OUTER_BOUND('',#583,.T.);
#481=PLANE('',#584);
#482=FACE_OUTER_BOUND('',#585,.T.);
#483=CYLINDRICAL_SURFACE('',#586,2.5);
#484=FACE_OUTER_BOUND('',#587,.T.);
#485=CONICAL_SURFACE('',#588,2.25,0.785398163397448);
#486=FACE_OUTER_BOUND('',#589,.T.);
#487=PLANE('',#590);
#488=FACE_OUTER_BOUND('',#591,.T.);
#489=CONICAL_SURFACE('',#592,2.25,0.785398163397448);
#490=FACE_OUTER_BOUND('',#593,.T.);
#491=CYLINDRICAL_SURFACE('',#594,2.5);
#492=FACE_OUTER_BOUND('',#595,.T.);
#493=PLANE('',#596);
#494=FACE_OUTER_BOUND('',#597,.T.);
#495=CYLINDRICAL_SURFACE('',#598,2.5);
#496=FACE_OUTER_BOUND('',#599,.T.);
#497=CONICAL_SURFACE('',#600,2.25,0.785398163397448);
#498=FACE_OUTER_BOUND('',#601,.T.);
#499=PLANE('',#602);
#500=FACE_OUTER_BOUND('',#603,.T.);
#501=CONICAL_SURFACE('',#604,2.25,0.785398163397448);
#502=FACE_OUTER_BOUND('',#605,.T.);
#503=CYLINDRICAL_SURFACE('',#606,2.5);
#504=FACE_OUTER_BOUND('',#607,.T.);
#505=PLANE('',#608);
#506=FACE_OUTER_BOUND('',#609,.T.);
#507=CYLINDRICAL_SURFACE('',#610,2.5);
#508=FACE_OUTER_BOUND('',#611,.T.);
#509=CONICAL_SURFACE('',#612,2.25,0.785398163397448);
#510=FACE_OUTER_BOUND('',#613,.T.);
#511=PLANE('',#614);
#512=FACE_OUTER_BOUND('',#615,.T.);
#513=CONICAL_SURFACE('',#616,2.25,0.785398163397448);
#514=FACE_OUTER_BOUND('',#617,.T.);
#515=CYLINDRICAL_SURFACE('',#618,2.5);
#516=FACE_OUTER_BOUND('',#619,.T.);
#517=PLANE('',#620);
#518=EDGE_LOOP('',(#621,#622,#623,#624));
#519=AXIS2_PLACEMENT_3D('',#625,#626,#627);
#520=EDGE_LOOP('',(#628,#629,#630,#631));
#521=AXIS2_PLACEMENT_3D('',#632,#633,#634);
#522=EDGE_LOOP('',(#635,#636,#637,#638));
#523=AXIS2_PLACEMENT_3D('',#639,#640,#641);
#524=EDGE_LOOP('',(#642,#643,#644,#645));
#525=AXIS2_PLACEMENT_3D('',#646,#647,#648);
#526=EDGE_LOOP('',(#649,#650,#651,#652));
#527=AXIS2_PLACEMENT_3D('',#653,#654,#655);
#528=EDGE_LOOP('',(#656,#657,#658,#659));
#529=AXIS2_PLACEMENT_3D('',#660,#661,#662);
#530=EDGE_LOOP('',(#663,#664,#665,#666));
#531=AXIS2_PLACEMENT_3D('',#667,#668,#669);
#532=EDGE_LOOP('',(#670,#671));
#533=AXIS2_PLACEMENT_3D('',#672,#673,#674);
#534=EDGE_LOOP('',(#675,#676,#677,#678));
#535=AXIS2_PLACEMENT_3D('',#679,#680,#681);
#536=EDGE_LOOP('',(#682,#683,#684,#685));
#537=AXIS2_PLACEMENT_3D('',#686,#687,#688);
#538=EDGE_LOOP('',(#689,#690));
#539=EDGE_LOOP('',(#691,#692));
#540=AXIS2_PLACEMENT_3D('',#693,#694,#695);
#541=EDGE_LOOP('',(#696,#697,#698,#699));
#542=AXIS2_PLACEMENT_3D('',#700,#701,#702);
#543=EDGE_LOOP('',(#703,#704,#705,#706));
#544=AXIS2_PLACEMENT_3D('',#707,#708,#709);
#545=EDGE_LOOP('',(#710,#711,#712,#713));
#546=AXIS2_PLACEMENT_3D('',#714,#715,#716);
#547=EDGE_LOOP('',(#717,#718,#719,#720));
#548=AXIS2_PLACEMENT_3D('',#721,#722,#723);
#549=EDGE_LOOP('',(#724,#725,#726,#727));
#550=AXIS2_PLACEMENT_3D('',#728,#729,#730);
#551=EDGE_LOOP('',(#731,#732));
#552=AXIS2_PLACEMENT_3D('',#733,#734,#735);
#553=EDGE_LOOP('',(#736,#737,#738,#739));
#554=AXIS2_PLACEMENT_3D('',#740,#741,#742);
#555=EDGE_LOOP('',(#743,#744,#745,#746));
#556=AXIS2_PLACEMENT_3D('',#747,#748,#749);
#557=EDGE_LOOP('',(#750,#751));
#558=AXIS2_PLACEMENT_3D('',#752,#753,#754);
#559=EDGE_LOOP('',(#755,#756,#757,#758));
#560=AXIS2_PLACEMENT_3D('',#759,#760,#761);
#561=EDGE_LOOP('',(#762,#763,#764,#765));
#562=AXIS2_PLACEMENT_3D('',#766,#767,#768);
#563=EDGE_LOOP('',(#769,#770));
#564=AXIS2_PLACEMENT_3D('',#771,#772,#773);
#565=EDGE_LOOP('',(#774,#775,#776,#777));
#566=AXIS2_PLACEMENT_3D('',#778,#779,#780);
#567=EDGE_LOOP('',(#781,#782,#783,#784));
#568=AXIS2_PLACEMENT_3D('',#785,#786,#787);
#569=EDGE_LOOP('',(#788,#789));
#570=AXIS2_PLACEMENT_3D('',#790,#791,#792);
#571=EDGE_LOOP('',(#793,#794,#795,#796));
#572=AXIS2_PLACEMENT_3D('',#797,#798,#799);
#573=EDGE_LOOP('',(#800,#801,#802,#803));
#574=AXIS2_PLACEMENT_3D('',#804,#805,#806);
#575=EDGE_LOOP('',(#807,#808));
#576=AXIS2_PLACEMENT_3D('',#809,#810,#811);
#577=EDGE_LOOP('',(#812,#813,#814,#815));
#578=AXIS2_PLACEMENT_3D('',#816,#817,#818);
#579=EDGE_LOOP('',(#819,#820,#821,#822));
#580=AXIS2_PLACEMENT_3D('',#823,#824,#825);
#581=EDGE_LOOP('',(#826,#827));
#582=AXIS2_PLACEMENT_3D('',#828,#829,#830);
#583=EDGE_LOOP('',(#831,#832));
#584=AXIS2_PLACEMENT_3D('',#833,#834,#835);
#585=EDGE_LOOP('',(#836,#837,#838,#839));
#586=AXIS2_PLACEMENT_3D('',#840,#841,#842);
#587=EDGE_LOOP('',(#843,#844,#845,#846));
#588=AXIS2_PLACEMENT_3D('',#847,#848,#849);
#589=EDGE_LOOP('',(#850,#851));
#590=AXIS2_PLACEMENT_3D('',#852,#853,#854);
#591=EDGE_LOOP('',(#855,#856,#857,#858));
#592=AXIS2_PLACEMENT_3D('',#859,#860,#861);
#593=EDGE_LOOP('',(#862,#863,#864,#865));
#594=AXIS2_PLACEMENT_3D('',#866,#867,#868);
#595=EDGE_LOOP('',(#869,#870));
#596=AXIS2_PLACEMENT_3D('',#871,#872,#873);
#597=EDGE_LOOP('',(#874,#875,#876,#877));
#598=AXIS2_PLACEMENT_3D('',#878,#879,#880);
#599=EDGE_LOOP('',(#881,#882,#883,#884));
#600=AXIS2_PLACEMENT_3D('',#885,#886,#887);
#601=EDGE_LOOP('',(#888,#889));
#602=AXIS2_PLACEMENT_3D('',#890,#891,#892);
#603=EDGE_LOOP('',(#893,#894,#895,#896));
#604=AXIS2_PLACEMENT_3D('',#897,#898,#899);
#605=EDGE_LOOP('',(#900,#901,#902,#903));
#606=AXIS2_PLACEMENT_3D('',#904,#905,#906);
#607=EDGE_LOOP('',(#907,#908));
#608=AXIS2_PLACEMENT_3D('',#909,#910,#911);
#609=EDGE_LOOP('',(#912,#913,#914,#915));
#610=AXIS2_PLACEMENT_3D('',#916,#917,#918);
#611=EDGE_LOOP('',(#919,#920,#921,#922));
#612=AXIS2_PLACEMENT_3D('',#923,#924,#925);
#613=EDGE_LOOP('',(#926,#927));
#614=AXIS2_PLACEMENT_3D('',#928,#929,#930);
#615=EDGE_LOOP('',(#931,#932,#933,#934));
#616=AXIS2_PLACEMENT_3D('',#935,#936,#937);
#617=EDGE_LOOP('',(#938,#939,#940,#941));
#618=AXIS2_PLACEMENT_3D('',#942,#943,#944);
#619=EDGE_LOOP('',(#945,#946));
#620=AXIS2_PLACEMENT_3D('',#947,#948,#949);
#621=ORIENTED_EDGE('',*,*,#950,.F.);
#622=ORIENTED_EDGE('',*,*,#951,.T.);
#623=ORIENTED_EDGE('',*,*,#952,.F.);
#624=ORIENTED_EDGE('',*,*,#953,.F.);
#625=CARTESIAN_POINT('',(0.5,0.0,0.0));
#626=DIRECTION('',(1.0,-0.0,-0.0));
#627=DIRECTION('',(0.0,1.0,0.0));
#628=ORIENTED_EDGE('',*,*,#954,.F.);
#629=ORIENTED_EDGE('',*,*,#955,.T.);
#630=ORIENTED_EDGE('',*,*,#956,.F.);
#631=ORIENTED_EDGE('',*,*,#957,.F.);
#632=CARTESIAN_POINT('',(2.5,0.0,0.0));
#633=DIRECTION('',(-1.0,0.0,0.0));
#634=DIRECTION('',(0.0,-1.0,0.0));
#635=ORIENTED_EDGE('',*,*,#958,.F.);
#636=ORIENTED_EDGE('',*,*,#959,.T.);
#637=ORIENTED_EDGE('',*,*,#960,.F.);
#638=ORIENTED_EDGE('',*,*,#961,.F.);
#639=CARTESIAN_POINT('',(23.5,0.0,0.0));
#640=DIRECTION('',(1.0,-0.0,-0.0));
#641=DIRECTION('',(0.0,1.0,0.0));
#642=ORIENTED_EDGE('',*,*,#962,.F.);
#643=ORIENTED_EDGE('',*,*,#963,.T.);
#644=ORIENTED_EDGE('',*,*,#964,.F.);
#645=ORIENTED_EDGE('',*,*,#965,.F.);
#646=CARTESIAN_POINT('',(44.5,0.0,0.0));
#647=DIRECTION('',(-1.0,0.0,0.0));
#648=DIRECTION('',(0.0,-1.0,0.0));
#649=ORIENTED_EDGE('',*,*,#966,.F.);
#650=ORIENTED_EDGE('',*,*,#967,.T.);
#651=ORIENTED_EDGE('',*,*,#968,.F.);
#652=ORIENTED_EDGE('',*,*,#969,.F.);
#653=CARTESIAN_POINT('',(46.5,0.0,0.0));
#654=DIRECTION('',(1.0,-0.0,-0.0));
#655=DIRECTION('',(0.0,1.0,0.0));
#656=ORIENTED_EDGE('',*,*,#970,.F.);
#657=ORIENTED_EDGE('',*,*,#971,.T.);
#658=ORIENTED_EDGE('',*,*,#972,.F.);
#659=ORIENTED_EDGE('',*,*,#973,.F.);
#660=CARTESIAN_POINT('',(49.25,0.0,0.0));
#661=DIRECTION('',(1.0,-0.0,-0.0));
#662=DIRECTION('',(0.0,0.0,-1.0));
#663=ORIENTED_EDGE('',*,*,#974,.F.);
#664=ORIENTED_EDGE('',*,*,#975,.T.);
#665=ORIENTED_EDGE('',*,*,#976,.F.);
#666=ORIENTED_EDGE('',*,*,#971,.F.);
#667=CARTESIAN_POINT('',(51.75,0.0,0.0));
#668=DIRECTION('',(-1.0,0.0,-0.0));
#669=DIRECTION('',(0.0,0.0,-1.0));
#670=ORIENTED_EDGE('',*,*,#975,.F.);
#671=ORIENTED_EDGE('',*,*,#977,.F.);
#672=CARTESIAN_POINT('',(52.0,0.0,-1.0));
#673=DIRECTION('',(1.0,0.0,-0.0));
#674=DIRECTION('',(0.0,0.0,1.0));
#675=ORIENTED_EDGE('',*,*,#974,.T.);
#676=ORIENTED_EDGE('',*,*,#978,.F.);
#677=ORIENTED_EDGE('',*,*,#976,.T.);
#678=ORIENTED_EDGE('',*,*,#977,.T.);
#679=CARTESIAN_POINT('',(51.75,0.0,0.0));
#680=DIRECTION('',(-1.0,0.0,-0.0));
#681=DIRECTION('',(0.0,0.0,-1.0));
#682=ORIENTED_EDGE('',*,*,#970,.T.);
#683=ORIENTED_EDGE('',*,*,#979,.F.);
#684=ORIENTED_EDGE('',*,*,#972,.T.);
#685=ORIENTED_EDGE('',*,*,#978,.T.);
#686=CARTESIAN_POINT('',(49.25,0.0,0.0));
#687=DIRECTION('',(1.0,-0.0,-0.0));
#688=DIRECTION('',(0.0,0.0,-1.0));
#689=ORIENTED_EDGE('',*,*,#973,.T.);
#690=ORIENTED_EDGE('',*,*,#979,.T.);
#691=ORIENTED_EDGE('',*,*,#967,.F.);
#692=ORIENTED_EDGE('',*,*,#980,.F.);
#693=CARTESIAN_POINT('',(47.0,3.0,0.0));
#694=DIRECTION('',(1.0,0.0,0.0));
#695=DIRECTION('',(0.0,-1.0,0.0));
#696=ORIENTED_EDGE('',*,*,#966,.T.);
#697=ORIENTED_EDGE('',*,*,#963,.F.);
#698=ORIENTED_EDGE('',*,*,#968,.T.);
#699=ORIENTED_EDGE('',*,*,#980,.T.);
#700=CARTESIAN_POINT('',(46.5,0.0,0.0));
#701=DIRECTION('',(1.0,-0.0,-0.0));
#702=DIRECTION('',(0.0,1.0,0.0));
#703=ORIENTED_EDGE('',*,*,#962,.T.);
#704=ORIENTED_EDGE('',*,*,#959,.F.);
#705=ORIENTED_EDGE('',*,*,#964,.T.);
#706=ORIENTED_EDGE('',*,*,#969,.T.);
#707=CARTESIAN_POINT('',(44.5,0.0,0.0));
#708=DIRECTION('',(-1.0,0.0,0.0));
#709=DIRECTION('',(0.0,-1.0,0.0));
#710=ORIENTED_EDGE('',*,*,#958,.T.);
#711=ORIENTED_EDGE('',*,*,#955,.F.);
#712=ORIENTED_EDGE('',*,*,#960,.T.);
#713=ORIENTED_EDGE('',*,*,#965,.T.);
#714=CARTESIAN_POINT('',(23.5,0.0,0.0));
#715=DIRECTION('',(1.0,-0.0,-0.0));
#716=DIRECTION('',(0.0,1.0,0.0));
#717=ORIENTED_EDGE('',*,*,#954,.T.);
#718=ORIENTED_EDGE('',*,*,#951,.F.);
#719=ORIENTED_EDGE('',*,*,#956,.T.);
#720=ORIENTED_EDGE('',*,*,#961,.T.);
#721=CARTESIAN_POINT('',(2.5,0.0,0.0));
#722=DIRECTION('',(-1.0,0.0,0.0));
#723=DIRECTION('',(0.0,-1.0,0.0));
#724=ORIENTED_EDGE('',*,*,#950,.T.);
#725=ORIENTED_EDGE('',*,*,#981,.F.);
#726=ORIENTED_EDGE('',*,*,#952,.T.);
#727=ORIENTED_EDGE('',*,*,#957,.T.);
#728=CARTESIAN_POINT('',(0.5,0.0,0.0));
#729=DIRECTION('',(1.0,-0.0,-0.0));
#730=DIRECTION('',(0.0,1.0,0.0));
#731=ORIENTED_EDGE('',*,*,#953,.T.);
#732=ORIENTED_EDGE('',*,*,#981,.T.);
#733=CARTESIAN_POINT('',(0.0,3.0,0.0));
#734=DIRECTION('',(-1.0,0.0,0.0));
#735=DIRECTION('',(0.0,1.0,0.0));
#736=ORIENTED_EDGE('',*,*,#982,.F.);
#737=ORIENTED_EDGE('',*,*,#983,.T.);
#738=ORIENTED_EDGE('',*,*,#984,.F.);
#739=ORIENTED_EDGE('',*,*,#985,.F.);
#740=CARTESIAN_POINT('',(-22.2501,0.0,0.0));
#741=DIRECTION('',(-1.0,-0.0,-0.0));
#742=DIRECTION('',(0.0,-1.0,0.0));
#743=ORIENTED_EDGE('',*,*,#986,.F.);
#744=ORIENTED_EDGE('',*,*,#987,.T.);
#745=ORIENTED_EDGE('',*,*,#988,.F.);
#746=ORIENTED_EDGE('',*,*,#983,.F.);
#747=CARTESIAN_POINT('',(-24.7501,0.0,0.0));
#748=DIRECTION('',(1.0,0.0,0.0));
#749=DIRECTION('',(0.0,-1.0,0.0));
#750=ORIENTED_EDGE('',*,*,#987,.F.);
#751=ORIENTED_EDGE('',*,*,#989,.F.);
#752=CARTESIAN_POINT('',(-25.0001,-1.0,0.0));
#753=DIRECTION('',(-1.0,0.0,0.0));
#754=DIRECTION('',(0.0,1.0,0.0));
#755=ORIENTED_EDGE('',*,*,#986,.T.);
#756=ORIENTED_EDGE('',*,*,#990,.F.);
#757=ORIENTED_EDGE('',*,*,#988,.T.);
#758=ORIENTED_EDGE('',*,*,#989,.T.);
#759=CARTESIAN_POINT('',(-24.7501,0.0,0.0));
#760=DIRECTION('',(1.0,0.0,0.0));
#761=DIRECTION('',(0.0,-1.0,0.0));
#762=ORIENTED_EDGE('',*,*,#982,.T.);
#763=ORIENTED_EDGE('',*,*,#991,.F.);
#764=ORIENTED_EDGE('',*,*,#984,.T.);
#765=ORIENTED_EDGE('',*,*,#990,.T.);
#766=CARTESIAN_POINT('',(-22.2501,0.0,0.0));
#767=DIRECTION('',(-1.0,-0.0,-0.0));
#768=DIRECTION('',(0.0,-1.0,0.0));
#769=ORIENTED_EDGE('',*,*,#985,.T.);
#770=ORIENTED_EDGE('',*,*,#991,.T.);
#771=CARTESIAN_POINT('',(-20.0001,-1.25,0.0));
#772=DIRECTION('',(1.0,0.0,0.0));
#773=DIRECTION('',(0.0,-1.0,0.0));
#774=ORIENTED_EDGE('',*,*,#992,.F.);
#775=ORIENTED_EDGE('',*,*,#993,.T.);
#776=ORIENTED_EDGE('',*,*,#994,.F.);
#777=ORIENTED_EDGE('',*,*,#995,.F.);
#778=CARTESIAN_POINT('',(-22.2501,0.0,0.0));
#779=DIRECTION('',(-1.0,-0.0,-0.0));
#780=DIRECTION('',(0.0,-1.0,0.0));
#781=ORIENTED_EDGE('',*,*,#996,.F.);
#782=ORIENTED_EDGE('',*,*,#997,.T.);
#783=ORIENTED_EDGE('',*,*,#998,.F.);
#784=ORIENTED_EDGE('',*,*,#993,.F.);
#785=CARTESIAN_POINT('',(-24.7501,0.0,0.0));
#786=DIRECTION('',(1.0,0.0,0.0));
#787=DIRECTION('',(0.0,-1.0,0.0));
#788=ORIENTED_EDGE('',*,*,#997,.F.);
#789=ORIENTED_EDGE('',*,*,#999,.F.);
#790=CARTESIAN_POINT('',(-25.0001,-1.0,0.0));
#791=DIRECTION('',(-1.0,0.0,0.0));
#792=DIRECTION('',(0.0,1.0,0.0));
#793=ORIENTED_EDGE('',*,*,#996,.T.);
#794=ORIENTED_EDGE('',*,*,#1000,.F.);
#795=ORIENTED_EDGE('',*,*,#998,.T.);
#796=ORIENTED_EDGE('',*,*,#999,.T.);
#797=CARTESIAN_POINT('',(-24.7501,0.0,0.0));
#798=DIRECTION('',(1.0,0.0,0.0));
#799=DIRECTION('',(0.0,-1.0,0.0));
#800=ORIENTED_EDGE('',*,*,#992,.T.);
#801=ORIENTED_EDGE('',*,*,#1001,.F.);
#802=ORIENTED_EDGE('',*,*,#994,.T.);
#803=ORIENTED_EDGE('',*,*,#1000,.T.);
#804=CARTESIAN_POINT('',(-22.2501,0.0,0.0));
#805=DIRECTION('',(-1.0,-0.0,-0.0));
#806=DIRECTION('',(0.0,-1.0,0.0));
#807=ORIENTED_EDGE('',*,*,#995,.T.);
#808=ORIENTED_EDGE('',*,*,#1001,.T.);
#809=CARTESIAN_POINT('',(-20.0001,-1.25,0.0));
#810=DIRECTION('',(1.0,0.0,0.0));
#811=DIRECTION('',(0.0,-1.0,0.0));
#812=ORIENTED_EDGE('',*,*,#1002,.F.);
#813=ORIENTED_EDGE('',*,*,#1003,.F.);
#814=ORIENTED_EDGE('',*,*,#1004,.F.);
#815=ORIENTED_EDGE('',*,*,#1005,.F.);
#816=CARTESIAN_POINT('',(-10.0,0.0,0.0));
#817=DIRECTION('',(1.0,-0.0,-0.0));
#818=DIRECTION('',(0.0,-1.0,0.0));
#819=ORIENTED_EDGE('',*,*,#1002,.T.);
#820=ORIENTED_EDGE('',*,*,#1006,.F.);
#821=ORIENTED_EDGE('',*,*,#1004,.T.);
#822=ORIENTED_EDGE('',*,*,#1007,.F.);
#823=CARTESIAN_POINT('',(-10.0,0.0,0.0));
#824=DIRECTION('',(1.0,-0.0,-0.0));
#825=DIRECTION('',(0.0,-1.0,0.0));
#826=ORIENTED_EDGE('',*,*,#1007,.T.);
#827=ORIENTED_EDGE('',*,*,#1003,.T.);
#828=CARTESIAN_POINT('',(0.0,0.0,0.0));
#829=DIRECTION('',(1.0,0.0,0.0));
#830=DIRECTION('',(0.0,1.0,0.0));
#831=ORIENTED_EDGE('',*,*,#1005,.T.);
#832=ORIENTED_EDGE('',*,*,#1006,.T.);
#833=CARTESIAN_POINT('',(-20.0,0.0,0.0));
#834=DIRECTION('',(-1.0,0.0,0.0));
#835=DIRECTION('',(0.0,-1.0,0.0));
#836=ORIENTED_EDGE('',*,*,#1008,.F.);
#837=ORIENTED_EDGE('',*,*,#1009,.T.);
#838=ORIENTED_EDGE('',*,*,#1010,.F.);
#839=ORIENTED_EDGE('',*,*,#1011,.F.);
#840=CARTESIAN_POINT('',(49.25,0.0,0.0));
#841=DIRECTION('',(1.0,-0.0,-0.0));
#842=DIRECTION('',(0.0,0.0,-1.0));
#843=ORIENTED_EDGE('',*,*,#1012,.F.);
#844=ORIENTED_EDGE('',*,*,#1013,.T.);
#845=ORIENTED_EDGE('',*,*,#1014,.F.);
#846=ORIENTED_EDGE('',*,*,#1009,.F.);
#847=CARTESIAN_POINT('',(51.75,0.0,0.0));
#848=DIRECTION('',(-1.0,0.0,-0.0));
#849=DIRECTION('',(0.0,0.0,-1.0));
#850=ORIENTED_EDGE('',*,*,#1013,.F.);
#851=ORIENTED_EDGE('',*,*,#1015,.F.);
#852=CARTESIAN_POINT('',(52.0,0.0,-1.0));
#853=DIRECTION('',(1.0,0.0,-0.0));
#854=DIRECTION('',(0.0,0.0,1.0));
#855=ORIENTED_EDGE('',*,*,#1012,.T.);
#856=ORIENTED_EDGE('',*,*,#1016,.F.);
#857=ORIENTED_EDGE('',*,*,#1014,.T.);
#858=ORIENTED_EDGE('',*,*,#1015,.T.);
#859=CARTESIAN_POINT('',(51.75,0.0,0.0));
#860=DIRECTION('',(-1.0,0.0,-0.0));
#861=DIRECTION('',(0.0,0.0,-1.0));
#862=ORIENTED_EDGE('',*,*,#1008,.T.);
#863=ORIENTED_EDGE('',*,*,#1017,.F.);
#864=ORIENTED_EDGE('',*,*,#1010,.T.);
#865=ORIENTED_EDGE('',*,*,#1016,.T.);
#866=CARTESIAN_POINT('',(49.25,0.0,0.0));
#867=DIRECTION('',(1.0,-0.0,-0.0));
#868=DIRECTION('',(0.0,0.0,-1.0));
#869=ORIENTED_EDGE('',*,*,#1011,.T.);
#870=ORIENTED_EDGE('',*,*,#1017,.T.);
#871=CARTESIAN_POINT('',(47.0,0.0,-1.25));
#872=DIRECTION('',(-1.0,0.0,0.0));
#873=DIRECTION('',(0.0,0.0,-1.0));
#874=ORIENTED_EDGE('',*,*,#1018,.F.);
#875=ORIENTED_EDGE('',*,*,#1019,.T.);
#876=ORIENTED_EDGE('',*,*,#1020,.F.);
#877=ORIENTED_EDGE('',*,*,#1021,.F.);
#878=CARTESIAN_POINT('',(-22.2501,0.0,0.0));
#879=DIRECTION('',(-1.0,-0.0,-0.0));
#880=DIRECTION('',(0.0,-1.0,0.0));
#881=ORIENTED_EDGE('',*,*,#1022,.F.);
#882=ORIENTED_EDGE('',*,*,#1023,.T.);
#883=ORIENTED_EDGE('',*,*,#1024,.F.);
#884=ORIENTED_EDGE('',*,*,#1019,.F.);
#885=CARTESIAN_POINT('',(-24.7501,0.0,0.0));
#886=DIRECTION('',(1.0,0.0,0.0));
#887=DIRECTION('',(0.0,-1.0,0.0));
#888=ORIENTED_EDGE('',*,*,#1023,.F.);
#889=ORIENTED_EDGE('',*,*,#1025,.F.);
#890=CARTESIAN_POINT('',(-25.0001,-1.0,0.0));
#891=DIRECTION('',(-1.0,0.0,0.0));
#892=DIRECTION('',(0.0,1.0,0.0));
#893=ORIENTED_EDGE('',*,*,#1022,.T.);
#894=ORIENTED_EDGE('',*,*,#1026,.F.);
#895=ORIENTED_EDGE('',*,*,#1024,.T.);
#896=ORIENTED_EDGE('',*,*,#1025,.T.);
#897=CARTESIAN_POINT('',(-24.7501,0.0,0.0));
#898=DIRECTION('',(1.0,0.0,0.0));
#899=DIRECTION('',(0.0,-1.0,0.0));
#900=ORIENTED_EDGE('',*,*,#1018,.T.);
#901=ORIENTED_EDGE('',*,*,#1027,.F.);
#902=ORIENTED_EDGE('',*,*,#1020,.T.);
#903=ORIENTED_EDGE('',*,*,#1026,.T.);
#904=CARTESIAN_POINT('',(-22.2501,0.0,0.0));
#905=DIRECTION('',(-1.0,-0.0,-0.0));
#906=DIRECTION('',(0.0,-1.0,0.0));
#907=ORIENTED_EDGE('',*,*,#1021,.T.);
#908=ORIENTED_EDGE('',*,*,#1027,.T.);
#909=CARTESIAN_POINT('',(-20.0001,-1.25,0.0));
#910=DIRECTION('',(1.0,0.0,0.0));
#911=DIRECTION('',(0.0,-1.0,0.0));
#912=ORIENTED_EDGE('',*,*,#1028,.F.);
#913=ORIENTED_EDGE('',*,*,#1029,.T.);
#914=ORIENTED_EDGE('',*,*,#1030,.F.);
#915=ORIENTED_EDGE('',*,*,#1031,.F.);
#916=CARTESIAN_POINT('',(49.25,0.0,0.0));
#917=DIRECTION('',(1.0,-0.0,-0.0));
#918=DIRECTION('',(0.0,0.0,-1.0));
#919=ORIENTED_EDGE('',*,*,#1032,.F.);
#920=ORIENTED_EDGE('',*,*,#1033,.T.);
#921=ORIENTED_EDGE('',*,*,#1034,.F.);
#922=ORIENTED_EDGE('',*,*,#1029,.F.);
#923=CARTESIAN_POINT('',(51.75,0.0,0.0));
#924=DIRECTION('',(-1.0,0.0,-0.0));
#925=DIRECTION('',(0.0,0.0,-1.0));
#926=ORIENTED_EDGE('',*,*,#1033,.F.);
#927=ORIENTED_EDGE('',*,*,#1035,.F.);
#928=CARTESIAN_POINT('',(52.0,0.0,-1.0));
#929=DIRECTION('',(1.0,0.0,-0.0));
#930=DIRECTION('',(0.0,0.0,1.0));
#931=ORIENTED_EDGE('',*,*,#1032,.T.);
#932=ORIENTED_EDGE('',*,*,#1036,.F.);
#933=ORIENTED_EDGE('',*,*,#1034,.T.);
#934=ORIENTED_EDGE('',*,*,#1035,.T.);
#935=CARTESIAN_POINT('',(51.75,0.0,0.0));
#936=DIRECTION('',(-1.0,0.0,-0.0));
#937=DIRECTION('',(0.0,0.0,-1.0));
#938=ORIENTED_EDGE('',*,*,#1028,.T.);
#939=ORIENTED_EDGE('',*,*,#1037,.F.);
#940=ORIENTED_EDGE('',*,*,#1030,.T.);
#941=ORIENTED_EDGE('',*,*,#1036,.T.);
#942=CARTESIAN_POINT('',(49.25,0.0,0.0));
#943=DIRECTION('',(1.0,-0.0,-0.0));
#944=DIRECTION('',(0.0,0.0,-1.0));
#945=ORIENTED_EDGE('',*,*,#1031,.T.);
#946=ORIENTED_EDGE('',*,*,#1037,.T.);
#947=CARTESIAN_POINT('',(47.0,0.0,-1.25));
#948=DIRECTION('',(-1.0,0.0,0.0));
#949=DIRECTION('',(0.0,0.0,-1.0));
#950=EDGE_CURVE('',#1038,#1039,#1040,.T.);
#951=EDGE_CURVE('',#1038,#1041,#1042,.T.);
#952=EDGE_CURVE('',#1043,#1041,#1044,.T.);
#953=EDGE_CURVE('',#1039,#1043,#1045,.T.);
#954=EDGE_CURVE('',#1046,#1041,#1047,.T.);
#955=EDGE_CURVE('',#1046,#1048,#1049,.T.);
#956=EDGE_CURVE('',#1038,#1048,#1050,.T.);
#957=EDGE_CURVE('',#1041,#1038,#1051,.T.);
#958=EDGE_CURVE('',#1052,#1048,#1053,.T.);
#959=EDGE_CURVE('',#1052,#1054,#1055,.T.);
#960=EDGE_CURVE('',#1046,#1054,#1056,.T.);
#961=EDGE_CURVE('',#1048,#1046,#1057,.T.);
#962=EDGE_CURVE('',#1058,#1054,#1059,.T.);
#963=EDGE_CURVE('',#1058,#1060,#1061,.T.);
#964=EDGE_CURVE('',#1052,#1060,#1062,.T.);
#965=EDGE_CURVE('',#1054,#1052,#1063,.T.);
#966=EDGE_CURVE('',#1064,#1060,#1065,.T.);
#967=EDGE_CURVE('',#1064,#1066,#1067,.T.);
#968=EDGE_CURVE('',#1058,#1066,#1068,.T.);
#969=EDGE_CURVE('',#1060,#1058,#1069,.T.);
#970=EDGE_CURVE('',#1070,#1071,#1072,.T.);
#971=EDGE_CURVE('',#1070,#1073,#1074,.T.);
#972=EDGE_CURVE('',#1075,#1073,#1076,.T.);
#973=EDGE_CURVE('',#1071,#1075,#1077,.T.);
#974=EDGE_CURVE('',#1078,#1070,#1079,.T.);
#975=EDGE_CURVE('',#1078,#1080,#1081,.T.);
#976=EDGE_CURVE('',#1073,#1080,#1082,.T.);
#977=EDGE_CURVE('',#1080,#1078,#1083,.T.);
#978=EDGE_CURVE('',#1073,#1070,#1084,.T.);
#979=EDGE_CURVE('',#1075,#1071,#1085,.T.);
#980=EDGE_CURVE('',#1066,#1064,#1086,.T.);
#981=EDGE_CURVE('',#1043,#1039,#1087,.T.);
#982=EDGE_CURVE('',#1088,#1089,#1090,.T.);
#983=EDGE_CURVE('',#1088,#1091,#1092,.T.);
#984=EDGE_CURVE('',#1093,#1091,#1094,.T.);
#985=EDGE_CURVE('',#1089,#1093,#1095,.T.);
#986=EDGE_CURVE('',#1096,#1088,#1097,.T.);
#987=EDGE_CURVE('',#1096,#1098,#1099,.T.);
#988=EDGE_CURVE('',#1091,#1098,#1100,.T.);
#989=EDGE_CURVE('',#1098,#1096,#1101,.T.);
#990=EDGE_CURVE('',#1091,#1088,#1102,.T.);
#991=EDGE_CURVE('',#1093,#1089,#1103,.T.);
#992=EDGE_CURVE('',#1104,#1105,#1106,.T.);
#993=EDGE_CURVE('',#1104,#1107,#1108,.T.);
#994=EDGE_CURVE('',#1109,#1107,#1110,.T.);
#995=EDGE_CURVE('',#1105,#1109,#1111,.T.);
#996=EDGE_CURVE('',#1112,#1104,#1113,.T.);
#997=EDGE_CURVE('',#1112,#1114,#1115,.T.);
#998=EDGE_CURVE('',#1107,#1114,#1116,.T.);
#999=EDGE_CURVE('',#1114,#1112,#1117,.T.);
#1000=EDGE_CURVE('',#1107,#1104,#1118,.T.);
#1001=EDGE_CURVE('',#1109,#1105,#1119,.T.);
#1002=EDGE_CURVE('',#1120,#1121,#1122,.T.);
#1003=EDGE_CURVE('',#1123,#1120,#1124,.T.);
#1004=EDGE_CURVE('',#1125,#1123,#1126,.T.);
#1005=EDGE_CURVE('',#1121,#1125,#1127,.T.);
#1006=EDGE_CURVE('',#1125,#1121,#1128,.T.);
#1007=EDGE_CURVE('',#1120,#1123,#1129,.T.);
#1008=EDGE_CURVE('',#1130,#1131,#1132,.T.);
#1009=EDGE_CURVE('',#1130,#1133,#1134,.T.);
#1010=EDGE_CURVE('',#1135,#1133,#1136,.T.);
#1011=EDGE_CURVE('',#1131,#1135,#1137,.T.);
#1012=EDGE_CURVE('',#1138,#1130,#1139,.T.);
#1013=EDGE_CURVE('',#1138,#1140,#1141,.T.);
#1014=EDGE_CURVE('',#1133,#1140,#1142,.T.);
#1015=EDGE_CURVE('',#1140,#1138,#1143,.T.);
#1016=EDGE_CURVE('',#1133,#1130,#1144,.T.);
#1017=EDGE_CURVE('',#1135,#1131,#1145,.T.);
#1018=EDGE_CURVE('',#1146,#1147,#1148,.T.);
#1019=EDGE_CURVE('',#1146,#1149,#1150,.T.);
#1020=EDGE_CURVE('',#1151,#1149,#1152,.T.);
#1021=EDGE_CURVE('',#1147,#1151,#1153,.T.);
#1022=EDGE_CURVE('',#1154,#1146,#1155,.T.);
#1023=EDGE_CURVE('',#1154,#1156,#1157,.T.);
#1024=EDGE_CURVE('',#1149,#1156,#1158,.T.);
#1025=EDGE_CURVE('',#1156,#1154,#1159,.T.);
#1026=EDGE_CURVE('',#1149,#1146,#1160,.T.);
#1027=EDGE_CURVE('',#1151,#1147,#1161,.T.);
#1028=EDGE_CURVE('',#1162,#1163,#1164,.T.);
#1029=EDGE_CURVE('',#1162,#1165,#1166,.T.);
#1030=EDGE_CURVE('',#1167,#1165,#1168,.T.);
#1031=EDGE_CURVE('',#1163,#1167,#1169,.T.);
#1032=EDGE_CURVE('',#1170,#1162,#1171,.T.);
#1033=EDGE_CURVE('',#1170,#1172,#1173,.T.);
#1034=EDGE_CURVE('',#1165,#1172,#1174,.T.);
#1035=EDGE_CURVE('',#1172,#1170,#1175,.T.);
#1036=EDGE_CURVE('',#1165,#1162,#1176,.T.);
#1037=EDGE_CURVE('',#1167,#1163,#1177,.T.);
#1038=VERTEX_POINT('',#1178);
#1039=VERTEX_POINT('',#1179);
#1040=LINE('',#1180,#1181);
#1041=VERTEX_POINT('',#1182);
#1042=CIRCLE('',#1183,6.0);
#1043=VERTEX_POINT('',#1184);
#1044=LINE('',#1185,#1186);
#1045=CIRCLE('',#1187,6.0);
#1046=VERTEX_POINT('',#1188);
#1047=CIRCLE('',#1189,1.5);
#1048=VERTEX_POINT('',#1190);
#1049=CIRCLE('',#1191,7.5);
#1050=CIRCLE('',#1192,1.5);
#1051=CIRCLE('',#1193,6.0);
#1052=VERTEX_POINT('',#1194);
#1053=LINE('',#1195,#1196);
#1054=VERTEX_POINT('',#1197);
#1055=CIRCLE('',#1198,7.5);
#1056=LINE('',#1199,#1200);
#1057=CIRCLE('',#1201,7.5);
#1058=VERTEX_POINT('',#1202);
#1059=CIRCLE('',#1203,1.5);
#1060=VERTEX_POINT('',#1204);
#1061=CIRCLE('',#1205,6.0);
#1062=CIRCLE('',#1206,1.5);
#1063=CIRCLE('',#1207,7.5);
#1064=VERTEX_POINT('',#1208);
#1065=LINE('',#1209,#1210);
#1066=VERTEX_POINT('',#1211);
#1067=CIRCLE('',#1212,6.0);
#1068=LINE('',#1213,#1214);
#1069=CIRCLE('',#1215,6.0);
#1070=VERTEX_POINT('',#1216);
#1071=VERTEX_POINT('',#1217);
#1072=LINE('',#1218,#1219);
#1073=VERTEX_POINT('',#1220);
#1074=CIRCLE('',#1221,2.5);
#1075=VERTEX_POINT('',#1222);
#1076=LINE('',#1223,#1224);
#1077=CIRCLE('',#1225,2.5);
#1078=VERTEX_POINT('',#1226);
#1079=LINE('',#1227,#1228);
#1080=VERTEX_POINT('',#1229);
#1081=CIRCLE('',#1230,2.0);
#1082=LINE('',#1231,#1232);
#1083=CIRCLE('',#1233,2.0);
#1084=CIRCLE('',#1234,2.5);
#1085=CIRCLE('',#1235,2.5);
#1086=CIRCLE('',#1236,6.0);
#1087=CIRCLE('',#1237,6.0);
#1088=VERTEX_POINT('',#1238);
#1089=VERTEX_POINT('',#1239);
#1090=LINE('',#1240,#1241);
#1091=VERTEX_POINT('',#1242);
#1092=CIRCLE('',#1243,2.5);
#1093=VERTEX_POINT('',#1244);
#1094=LINE('',#1245,#1246);
#1095=CIRCLE('',#1247,2.5);
#1096=VERTEX_POINT('',#1248);
#1097=LINE('',#1249,#1250);
#1098=VERTEX_POINT('',#1251);
#1099=CIRCLE('',#1252,2.0);
#1100=LINE('',#1253,#1254);
#1101=CIRCLE('',#1255,2.0);
#1102=CIRCLE('',#1256,2.5);
#1103=CIRCLE('',#1257,2.5);
#1104=VERTEX_POINT('',#1258);
#1105=VERTEX_POINT('',#1259);
#1106=LINE('',#1260,#1261);
#1107=VERTEX_POINT('',#1262);
#1108=CIRCLE('',#1263,2.5);
#1109=VERTEX_POINT('',#1264);
#1110=LINE('',#1265,#1266);
#1111=CIRCLE('',#1267,2.5);
#1112=VERTEX_POINT('',#1268);
#1113=LINE('',#1269,#1270);
#1114=VERTEX_POINT('',#1271);
#1115=CIRCLE('',#1272,2.0);
#1116=LINE('',#1273,#1274);
#1117=CIRCLE('',#1275,2.0);
#1118=CIRCLE('',#1276,2.5);
#1119=CIRCLE('',#1277,2.5);
#1120=VERTEX_POINT('',#1278);
#1121=VERTEX_POINT('',#1279);
#1122=LINE('',#1280,#1281);
#1123=VERTEX_POINT('',#1282);
#1124=CIRCLE('',#1283,3.0);
#1125=VERTEX_POINT('',#1284);
#1126=LINE('',#1285,#1286);
#1127=CIRCLE('',#1287,3.0);
#1128=CIRCLE('',#1288,3.0);
#1129=CIRCLE('',#1289,3.0);
#1130=VERTEX_POINT('',#1290);
#1131=VERTEX_POINT('',#1291);
#1132=LINE('',#1292,#1293);
#1133=VERTEX_POINT('',#1294);
#1134=CIRCLE('',#1295,2.5);
#1135=VERTEX_POINT('',#1296);
#1136=LINE('',#1297,#1298);
#1137=CIRCLE('',#1299,2.5);
#1138=VERTEX_POINT('',#1300);
#1139=LINE('',#1301,#1302);
#1140=VERTEX_POINT('',#1303);
#1141=CIRCLE('',#1304,2.0);
#1142=LINE('',#1305,#1306);
#1143=CIRCLE('',#1307,2.0);
#1144=CIRCLE('',#1308,2.5);
#1145=CIRCLE('',#1309,2.5);
#1146=VERTEX_POINT('',#1310);
#1147=VERTEX_POINT('',#1311);
#1148=LINE('',#1312,#1313);
#1149=VERTEX_POINT('',#1314);
#1150=CIRCLE('',#1315,2.5);
#1151=VERTEX_POINT('',#1316);
#1152=LINE('',#1317,#1318);
#1153=CIRCLE('',#1319,2.5);
#1154=VERTEX_POINT('',#1320);
#1155=LINE('',#1321,#1322);
#1156=VERTEX_POINT('',#1323);
#1157=CIRCLE('',#1324,2.0);
#1158=LINE('',#1325,#1326);
#1159=CIRCLE('',#1327,2.0);
#1160=CIRCLE('',#1328,2.5);
#1161=CIRCLE('',#1329,2.5);
#1162=VERTEX_POINT('',#1330);
#1163=VERTEX_POINT('',#1331);
#1164=LINE('',#1332,#1333);
#1165=VERTEX_POINT('',#1334);
#1166=CIRCLE('',#1335,2.5);
#1167=VERTEX_POINT('',#1336);
#1168=LINE('',#1337,#1338);
#1169=CIRCLE('',#1339,2.5);
#1170=VERTEX_POINT('',#1340);
#1171=LINE('',#1341,#1342);
#1172=VERTEX_POINT('',#1343);
#1173=CIRCLE('',#1344,2.0);
#1174=LINE('',#1345,#1346);
#1175=CIRCLE('',#1347,2.0);
#1176=CIRCLE('',#1348,2.5);
#1177=CIRCLE('',#1349,2.5);
#1178=CARTESIAN_POINT('',(1.0,6.0,0.0));
#1179=CARTESIAN_POINT('',(0.0,6.0,0.0));
#1180=CARTESIAN_POINT('',(0.5,6.0,7.34763812293426E-016));
#1181=VECTOR('',#1350,1.0);
#1182=CARTESIAN_POINT('',(1.0,-6.0,-7.34763812293426E-016));
#1183=AXIS2_PLACEMENT_3D('',#1351,#1352,#1353);
#1184=CARTESIAN_POINT('',(0.0,-6.0,-7.34763812293426E-016));
#1185=CARTESIAN_POINT('',(0.5,-6.0,-7.34763812293426E-016));
#1186=VECTOR('',#1354,1.0);
#1187=AXIS2_PLACEMENT_3D('',#1355,#1356,#1357);
#1188=CARTESIAN_POINT('',(2.5,-7.5,-9.18454765366783E-016));
#1189=AXIS2_PLACEMENT_3D('',#1358,#1359,#1360);
#1190=CARTESIAN_POINT('',(2.5,7.5,0.0));
#1191=AXIS2_PLACEMENT_3D('',#1361,#1362,#1363);
#1192=AXIS2_PLACEMENT_3D('',#1364,#1365,#1366);
#1193=AXIS2_PLACEMENT_3D('',#1367,#1368,#1369);
#1194=CARTESIAN_POINT('',(44.5,7.5,0.0));
#1195=CARTESIAN_POINT('',(23.5,7.5,9.18454765366783E-016));
#1196=VECTOR('',#1370,1.0);
#1197=CARTESIAN_POINT('',(44.5,-7.5,-9.18454765366783E-016));
#1198=AXIS2_PLACEMENT_3D('',#1371,#1372,#1373);
#1199=CARTESIAN_POINT('',(23.5,-7.5,-9.18454765366783E-016));
#1200=VECTOR('',#1374,1.0);
#1201=AXIS2_PLACEMENT_3D('',#1375,#1376,#1377);
#1202=CARTESIAN_POINT('',(46.0,-6.0,-7.34763812293426E-016));
#1203=AXIS2_PLACEMENT_3D('',#1378,#1379,#1380);
#1204=CARTESIAN_POINT('',(46.0,6.0,0.0));
#1205=AXIS2_PLACEMENT_3D('',#1381,#1382,#1383);
#1206=AXIS2_PLACEMENT_3D('',#1384,#1385,#1386);
#1207=AXIS2_PLACEMENT_3D('',#1387,#1388,#1389);
#1208=CARTESIAN_POINT('',(47.0,6.0,0.0));
#1209=CARTESIAN_POINT('',(46.5,6.0,7.34763812293426E-016));
#1210=VECTOR('',#1390,1.0);
#1211=CARTESIAN_POINT('',(47.0,-6.0,-7.34763812293426E-016));
#1212=AXIS2_PLACEMENT_3D('',#1391,#1392,#1393);
#1213=CARTESIAN_POINT('',(46.5,-6.0,-7.34763812293426E-016));
#1214=VECTOR('',#1394,1.0);
#1215=AXIS2_PLACEMENT_3D('',#1395,#1396,#1397);
#1216=CARTESIAN_POINT('',(51.5,0.0,-2.5));
#1217=CARTESIAN_POINT('',(47.0,0.0,-2.5));
#1218=CARTESIAN_POINT('',(49.25,3.06151588455594E-016,-2.5));
#1219=VECTOR('',#1398,1.0);
#1220=CARTESIAN_POINT('',(51.5,-3.06151588455594E-016,2.5));
#1221=AXIS2_PLACEMENT_3D('',#1399,#1400,#1401);
#1222=CARTESIAN_POINT('',(47.0,-3.06151588455594E-016,2.5));
#1223=CARTESIAN_POINT('',(49.25,-3.06151588455594E-016,2.5));
#1224=VECTOR('',#1402,1.0);
#1225=AXIS2_PLACEMENT_3D('',#1403,#1404,#1405);
#1226=CARTESIAN_POINT('',(52.0,0.0,-2.0));
#1227=CARTESIAN_POINT('',(51.75,2.75536429610035E-016,-2.25));
#1228=VECTOR('',#1406,1.0);
#1229=CARTESIAN_POINT('',(52.0,-2.44921270764475E-016,2.0));
#1230=AXIS2_PLACEMENT_3D('',#1407,#1408,#1409);
#1231=CARTESIAN_POINT('',(51.75,-2.75536429610035E-016,2.25));
#1232=VECTOR('',#1410,1.0);
#1233=AXIS2_PLACEMENT_3D('',#1411,#1412,#1413);
#1234=AXIS2_PLACEMENT_3D('',#1414,#1415,#1416);
#1235=AXIS2_PLACEMENT_3D('',#1417,#1418,#1419);
#1236=AXIS2_PLACEMENT_3D('',#1420,#1421,#1422);
#1237=AXIS2_PLACEMENT_3D('',#1423,#1424,#1425);
#1238=CARTESIAN_POINT('',(-24.5001,-2.5,0.0));
#1239=CARTESIAN_POINT('',(-20.0001,-2.5,0.0));
#1240=CARTESIAN_POINT('',(-22.2501,-2.5,3.06151588455594E-016));
#1241=VECTOR('',#1426,1.0);
#1242=CARTESIAN_POINT('',(-24.5001,2.5,-3.06151588455594E-016));
#1243=AXIS2_PLACEMENT_3D('',#1427,#1428,#1429);
#1244=CARTESIAN_POINT('',(-20.0001,2.5,-3.06151588455594E-016));
#1245=CARTESIAN_POINT('',(-22.2501,2.5,-3.06151588455594E-016));
#1246=VECTOR('',#1430,1.0);
#1247=AXIS2_PLACEMENT_3D('',#1431,#1432,#1433);
#1248=CARTESIAN_POINT('',(-25.0001,-2.0,0.0));
#1249=CARTESIAN_POINT('',(-24.7501,-2.25,2.75536429610035E-016));
#1250=VECTOR('',#1434,1.0);
#1251=CARTESIAN_POINT('',(-25.0001,2.0,-2.44921270764475E-016));
#1252=AXIS2_PLACEMENT_3D('',#1435,#1436,#1437);
#1253=CARTESIAN_POINT('',(-24.7501,2.25,-2.75536429610035E-016));
#1254=VECTOR('',#1438,1.0);
#1255=AXIS2_PLACEMENT_3D('',#1439,#1440,#1441);
#1256=AXIS2_PLACEMENT_3D('',#1442,#1443,#1444);
#1257=AXIS2_PLACEMENT_3D('',#1445,#1446,#1447);
#1258=CARTESIAN_POINT('',(-24.5001,-2.5,0.0));
#1259=CARTESIAN_POINT('',(-20.0001,-2.5,0.0));
#1260=CARTESIAN_POINT('',(-22.2501,-2.5,3.06151588455594E-016));
#1261=VECTOR('',#1448,1.0);
#1262=CARTESIAN_POINT('',(-24.5001,2.5,-3.06151588455594E-016));
#1263=AXIS2_PLACEMENT_3D('',#1449,#1450,#1451);
#1264=CARTESIAN_POINT('',(-20.0001,2.5,-3.06151588455594E-016));
#1265=CARTESIAN_POINT('',(-22.2501,2.5,-3.06151588455594E-016));
#1266=VECTOR('',#1452,1.0);
#1267=AXIS2_PLACEMENT_3D('',#1453,#1454,#1455);
#1268=CARTESIAN_POINT('',(-25.0001,-2.0,0.0));
#1269=CARTESIAN_POINT('',(-24.7501,-2.25,2.75536429610035E-016));
#1270=VECTOR('',#1456,1.0);
#1271=CARTESIAN_POINT('',(-25.0001,2.0,-2.44921270764475E-016));
#1272=AXIS2_PLACEMENT_3D('',#1457,#1458,#1459);
#1273=CARTESIAN_POINT('',(-24.7501,2.25,-2.75536429610035E-016));
#1274=VECTOR('',#1460,1.0);
#1275=AXIS2_PLACEMENT_3D('',#1461,#1462,#1463);
#1276=AXIS2_PLACEMENT_3D('',#1464,#1465,#1466);
#1277=AXIS2_PLACEMENT_3D('',#1467,#1468,#1469);
#1278=CARTESIAN_POINT('',(0.0,-3.0,0.0));
#1279=CARTESIAN_POINT('',(-20.0,-3.0,0.0));
#1280=CARTESIAN_POINT('',(-10.0,-3.0,-3.67381906146713E-016));
#1281=VECTOR('',#1470,1.0);
#1282=CARTESIAN_POINT('',(0.0,3.0,3.67381906146713E-016));
#1283=AXIS2_PLACEMENT_3D('',#1471,#1472,#1473);
#1284=CARTESIAN_POINT('',(-20.0,3.0,3.67381906146713E-016));
#1285=CARTESIAN_POINT('',(-10.0,3.0,3.67381906146713E-016));
#1286=VECTOR('',#1474,1.0);
#1287=AXIS2_PLACEMENT_3D('',#1475,#1476,#1477);
#1288=AXIS2_PLACEMENT_3D('',#1478,#1479,#1480);
#1289=AXIS2_PLACEMENT_3D('',#1481,#1482,#1483);
#1290=CARTESIAN_POINT('',(51.5,0.0,-2.5));
#1291=CARTESIAN_POINT('',(47.0,0.0,-2.5));
#1292=CARTESIAN_POINT('',(49.25,3.06151588455594E-016,-2.5));
#1293=VECTOR('',#1484,1.0);
#1294=CARTESIAN_POINT('',(51.5,-3.06151588455594E-016,2.5));
#1295=AXIS2_PLACEMENT_3D('',#1485,#1486,#1487);
#1296=CARTESIAN_POINT('',(47.0,-3.06151588455594E-016,2.5));
#1297=CARTESIAN_POINT('',(49.25,-3.06151588455594E-016,2.5));
#1298=VECTOR('',#1488,1.0);
#1299=AXIS2_PLACEMENT_3D('',#1489,#1490,#1491);
#1300=CARTESIAN_POINT('',(52.0,0.0,-2.0));
#1301=CARTESIAN_POINT('',(51.75,2.75536429610035E-016,-2.25));
#1302=VECTOR('',#1492,1.0);
#1303=CARTESIAN_POINT('',(52.0,-2.44921270764475E-016,2.0));
#1304=AXIS2_PLACEMENT_3D('',#1493,#1494,#1495);
#1305=CARTESIAN_POINT('',(51.75,-2.75536429610035E-016,2.25));
#1306=VECTOR('',#1496,1.0);
#1307=AXIS2_PLACEMENT_3D('',#1497,#1498,#1499);
#1308=AXIS2_PLACEMENT_3D('',#1500,#1501,#1502);
#1309=AXIS2_PLACEMENT_3D('',#1503,#1504,#1505);
#1310=CARTESIAN_POINT('',(-24.5001,-2.5,0.0));
#1311=CARTESIAN_POINT('',(-20.0001,-2.5,0.0));
#1312=CARTESIAN_POINT('',(-22.2501,-2.5,3.06151588455594E-016));
#1313=VECTOR('',#1506,1.0);
#1314=CARTESIAN_POINT('',(-24.5001,2.5,-3.06151588455594E-016));
#1315=AXIS2_PLACEMENT_3D('',#1507,#1508,#1509);
#1316=CARTESIAN_POINT('',(-20.0001,2.5,-3.06151588455594E-016));
#1317=CARTESIAN_POINT('',(-22.2501,2.5,-3.06151588455594E-016));
#1318=VECTOR('',#1510,1.0);
#1319=AXIS2_PLACEMENT_3D('',#1511,#1512,#1513);
#1320=CARTESIAN_POINT('',(-25.0001,-2.0,0.0));
#1321=CARTESIAN_POINT('',(-24.7501,-2.25,2.75536429610035E-016));
#1322=VECTOR('',#1514,1.0);
#1323=CARTESIAN_POINT('',(-25.0001,2.0,-2.44921270764475E-016));
#1324=AXIS2_PLACEMENT_3D('',#1515,#1516,#1517);
#1325=CARTESIAN_POINT('',(-24.7501,2.25,-2.75536429610035E-016));
#1326=VECTOR('',#1518,1.0);
#1327=AXIS2_PLACEMENT_3D('',#1519,#1520,#1521);
#1328=AXIS2_PLACEMENT_3D('',#1522,#1523,#1524);
#1329=AXIS2_PLACEMENT_3D('',#1525,#1526,#1527);
#1330=CARTESIAN_POINT('',(51.5,0.0,-2.5));
#1331=CARTESIAN_POINT('',(47.0,0.0,-2.5));
#1332=CARTESIAN_POINT('',(49.25,3.06151588455594E-016,-2.5));
#1333=VECTOR('',#1528,1.0);
#1334=CARTESIAN_POINT('',(51.5,-3.06151588455594E-016,2.5));
#1335=AXIS2_PLACEMENT_3D('',#1529,#1530,#1531);
#1336=CARTESIAN_POINT('',(47.0,-3.06151588455594E-016,2.5));
#1337=CARTESIAN_POINT('',(49.25,-3.06151588455594E-016,2.5));
#1338=VECTOR('',#1532,1.0);
#1339=AXIS2_PLACEMENT_3D('',#1533,#1534,#1535);
#1340=CARTESIAN_POINT('',(52.0,0.0,-2.0));
#1341=CARTESIAN_POINT('',(51.75,2.75536429610035E-016,-2.25));
#1342=VECTOR('',#1536,1.0);
#1343=CARTESIAN_POINT('',(52.0,-2.44921270764475E-016,2.0));
#1344=AXIS2_PLACEMENT_3D('',#1537,#1538,#1539);
#1345=CARTESIAN_POINT('',(51.75,-2.75536429610035E-016,2.25));
#1346=VECTOR('',#1540,1.0);
#1347=AXIS2_PLACEMENT_3D('',#1541,#1542,#1543);
#1348=AXIS2_PLACEMENT_3D('',#1544,#1545,#1546);
#1349=AXIS2_PLACEMENT_3D('',#1547,#1548,#1549);
#1350=DIRECTION('',(-1.0,0.0,0.0));
#1351=CARTESIAN_POINT('',(1.0,0.0,0.0));
#1352=DIRECTION('',(-1.0,0.0,0.0));
#1353=DIRECTION('',(0.0,1.0,0.0));
#1354=DIRECTION('',(1.0,-0.0,-0.0));
#1355=CARTESIAN_POINT('',(0.0,0.0,0.0));
#1356=DIRECTION('',(-1.0,0.0,0.0));
#1357=DIRECTION('',(0.0,1.0,0.0));
#1358=CARTESIAN_POINT('',(2.5,-6.0,-7.34763812293426E-016));
#1359=DIRECTION('',(-0.0,1.22460635382238E-016,-1.0));
#1360=DIRECTION('',(0.0,-1.0,-1.22460635382238E-016));
#1361=CARTESIAN_POINT('',(2.5,0.0,0.0));
#1362=DIRECTION('',(-1.0,0.0,0.0));
#1363=DIRECTION('',(0.0,1.0,0.0));
#1364=CARTESIAN_POINT('',(2.5,6.0,7.34763812293426E-016));
#1365=DIRECTION('',(-0.0,1.22460635382238E-016,-1.0));
#1366=DIRECTION('',(0.0,1.0,1.22460635382238E-016));
#1367=CARTESIAN_POINT('',(1.0,0.0,0.0));
#1368=DIRECTION('',(-1.0,0.0,0.0));
#1369=DIRECTION('',(0.0,1.0,0.0));
#1370=DIRECTION('',(-1.0,0.0,0.0));
#1371=CARTESIAN_POINT('',(44.5,0.0,0.0));
#1372=DIRECTION('',(-1.0,0.0,0.0));
#1373=DIRECTION('',(0.0,1.0,0.0));
#1374=DIRECTION('',(1.0,-0.0,-0.0));
#1375=CARTESIAN_POINT('',(2.5,0.0,0.0));
#1376=DIRECTION('',(-1.0,0.0,0.0));
#1377=DIRECTION('',(0.0,1.0,0.0));
#1378=CARTESIAN_POINT('',(44.5,-6.0,-7.34763812293426E-016));
#1379=DIRECTION('',(-0.0,1.22460635382238E-016,-1.0));
#1380=DIRECTION('',(0.0,-1.0,-1.22460635382238E-016));
#1381=CARTESIAN_POINT('',(46.0,0.0,0.0));
#1382=DIRECTION('',(-1.0,0.0,0.0));
#1383=DIRECTION('',(0.0,1.0,0.0));
#1384=CARTESIAN_POINT('',(44.5,6.0,7.34763812293426E-016));
#1385=DIRECTION('',(-0.0,1.22460635382238E-016,-1.0));
#1386=DIRECTION('',(0.0,1.0,1.22460635382238E-016));
#1387=CARTESIAN_POINT('',(44.5,0.0,0.0));
#1388=DIRECTION('',(-1.0,0.0,0.0));
#1389=DIRECTION('',(0.0,1.0,0.0));
#1390=DIRECTION('',(-1.0,0.0,0.0));
#1391=CARTESIAN_POINT('',(47.0,0.0,0.0));
#1392=DIRECTION('',(-1.0,0.0,0.0));
#1393=DIRECTION('',(0.0,1.0,0.0));
#1394=DIRECTION('',(1.0,-0.0,-0.0));
#1395=CARTESIAN_POINT('',(46.0,0.0,0.0));
#1396=DIRECTION('',(-1.0,0.0,0.0));
#1397=DIRECTION('',(0.0,1.0,0.0));
#1398=DIRECTION('',(-1.0,0.0,0.0));
#1399=CARTESIAN_POINT('',(51.5,0.0,0.0));
#1400=DIRECTION('',(-1.0,0.0,0.0));
#1401=DIRECTION('',(0.0,0.0,-1.0));
#1402=DIRECTION('',(1.0,-0.0,-0.0));
#1403=CARTESIAN_POINT('',(47.0,0.0,0.0));
#1404=DIRECTION('',(-1.0,-0.0,-0.0));
#1405=DIRECTION('',(0.0,0.0,-1.0));
#1406=DIRECTION('',(-0.707106781186548,8.65927457071935E-017,-0.707106781186547));
#1407=CARTESIAN_POINT('',(52.0,0.0,0.0));
#1408=DIRECTION('',(-1.0,0.0,0.0));
#1409=DIRECTION('',(0.0,0.0,-1.0));
#1410=DIRECTION('',(0.707106781186548,8.65927457071935E-017,-0.707106781186547));
#1411=CARTESIAN_POINT('',(52.0,0.0,0.0));
#1412=DIRECTION('',(-1.0,0.0,0.0));
#1413=DIRECTION('',(0.0,0.0,-1.0));
#1414=CARTESIAN_POINT('',(51.5,0.0,0.0));
#1415=DIRECTION('',(-1.0,0.0,0.0));
#1416=DIRECTION('',(0.0,0.0,-1.0));
#1417=CARTESIAN_POINT('',(47.0,0.0,0.0));
#1418=DIRECTION('',(-1.0,-0.0,-0.0));
#1419=DIRECTION('',(0.0,0.0,-1.0));
#1420=CARTESIAN_POINT('',(47.0,0.0,0.0));
#1421=DIRECTION('',(-1.0,0.0,0.0));
#1422=DIRECTION('',(0.0,1.0,0.0));
#1423=CARTESIAN_POINT('',(0.0,0.0,0.0));
#1424=DIRECTION('',(-1.0,0.0,0.0));
#1425=DIRECTION('',(0.0,1.0,0.0));
#1426=DIRECTION('',(1.0,0.0,0.0));
#1427=CARTESIAN_POINT('',(-24.5001,0.0,0.0));
#1428=DIRECTION('',(1.0,0.0,0.0));
#1429=DIRECTION('',(0.0,-1.0,0.0));
#1430=DIRECTION('',(-1.0,-0.0,-0.0));
#1431=CARTESIAN_POINT('',(-20.0001,0.0,0.0));
#1432=DIRECTION('',(1.0,0.0,0.0));
#1433=DIRECTION('',(0.0,-1.0,0.0));
#1434=DIRECTION('',(0.707106781186548,-0.707106781186547,8.65927457071935E-017));
#1435=CARTESIAN_POINT('',(-25.0001,0.0,0.0));
#1436=DIRECTION('',(1.0,0.0,0.0));
#1437=DIRECTION('',(0.0,-1.0,0.0));
#1438=DIRECTION('',(-0.707106781186548,-0.707106781186547,8.65927457071935E-017));
#1439=CARTESIAN_POINT('',(-25.0001,0.0,0.0));
#1440=DIRECTION('',(1.0,0.0,0.0));
#1441=DIRECTION('',(0.0,-1.0,0.0));
#1442=CARTESIAN_POINT('',(-24.5001,0.0,0.0));
#1443=DIRECTION('',(1.0,0.0,0.0));
#1444=DIRECTION('',(0.0,-1.0,0.0));
#1445=CARTESIAN_POINT('',(-20.0001,0.0,0.0));
#1446=DIRECTION('',(1.0,0.0,0.0));
#1447=DIRECTION('',(0.0,-1.0,0.0));
#1448=DIRECTION('',(1.0,0.0,0.0));
#1449=CARTESIAN_POINT('',(-24.5001,0.0,0.0));
#1450=DIRECTION('',(1.0,0.0,0.0));
#1451=DIRECTION('',(0.0,-1.0,0.0));
#1452=DIRECTION('',(-1.0,-0.0,-0.0));
#1453=CARTESIAN_POINT('',(-20.0001,0.0,0.0));
#1454=DIRECTION('',(1.0,0.0,0.0));
#1455=DIRECTION('',(0.0,-1.0,0.0));
#1456=DIRECTION('',(0.707106781186548,-0.707106781186547,8.65927457071935E-017));
#1457=CARTESIAN_POINT('',(-25.0001,0.0,0.0));
#1458=DIRECTION('',(1.0,0.0,0.0));
#1459=DIRECTION('',(0.0,-1.0,0.0));
#1460=DIRECTION('',(-0.707106781186548,-0.707106781186547,8.65927457071935E-017));
#1461=CARTESIAN_POINT('',(-25.0001,0.0,0.0));
#1462=DIRECTION('',(1.0,0.0,0.0));
#1463=DIRECTION('',(0.0,-1.0,0.0));
#1464=CARTESIAN_POINT('',(-24.5001,0.0,0.0));
#1465=DIRECTION('',(1.0,0.0,0.0));
#1466=DIRECTION('',(0.0,-1.0,0.0));
#1467=CARTESIAN_POINT('',(-20.0001,0.0,0.0));
#1468=DIRECTION('',(1.0,0.0,0.0));
#1469=DIRECTION('',(0.0,-1.0,0.0));
#1470=DIRECTION('',(-1.0,0.0,0.0));
#1471=CARTESIAN_POINT('',(0.0,0.0,0.0));
#1472=DIRECTION('',(1.0,0.0,0.0));
#1473=DIRECTION('',(0.0,-1.0,0.0));
#1474=DIRECTION('',(1.0,-0.0,-0.0));
#1475=CARTESIAN_POINT('',(-20.0,0.0,0.0));
#1476=DIRECTION('',(-1.0,0.0,0.0));
#1477=DIRECTION('',(0.0,-1.0,0.0));
#1478=CARTESIAN_POINT('',(-20.0,0.0,0.0));
#1479=DIRECTION('',(-1.0,0.0,0.0));
#1480=DIRECTION('',(0.0,-1.0,0.0));
#1481=CARTESIAN_POINT('',(0.0,0.0,0.0));
#1482=DIRECTION('',(1.0,0.0,0.0));
#1483=DIRECTION('',(0.0,-1.0,0.0));
#1484=DIRECTION('',(-1.0,0.0,0.0));
#1485=CARTESIAN_POINT('',(51.5,0.0,0.0));
#1486=DIRECTION('',(-1.0,0.0,0.0));
#1487=DIRECTION('',(0.0,0.0,-1.0));
#1488=DIRECTION('',(1.0,-0.0,-0.0));
#1489=CARTESIAN_POINT('',(47.0,0.0,0.0));
#1490=DIRECTION('',(-1.0,0.0,0.0));
#1491=DIRECTION('',(0.0,0.0,-1.0));
#1492=DIRECTION('',(-0.707106781186548,8.65927457071935E-017,-0.707106781186547));
#1493=CARTESIAN_POINT('',(52.0,0.0,0.0));
#1494=DIRECTION('',(-1.0,0.0,0.0));
#1495=DIRECTION('',(0.0,0.0,-1.0));
#1496=DIRECTION('',(0.707106781186548,8.65927457071935E-017,-0.707106781186547));
#1497=CARTESIAN_POINT('',(52.0,0.0,0.0));
#1498=DIRECTION('',(-1.0,0.0,0.0));
#1499=DIRECTION('',(0.0,0.0,-1.0));
#1500=CARTESIAN_POINT('',(51.5,0.0,0.0));
#1501=DIRECTION('',(-1.0,0.0,0.0));
#1502=DIRECTION('',(0.0,0.0,-1.0));
#1503=CARTESIAN_POINT('',(47.0,0.0,0.0));
#1504=DIRECTION('',(-1.0,0.0,0.0));
#1505=DIRECTION('',(0.0,0.0,-1.0));
#1506=DIRECTION('',(1.0,0.0,0.0));
#1507=CARTESIAN_POINT('',(-24.5001,0.0,0.0));
#1508=DIRECTION('',(1.0,0.0,0.0));
#1509=DIRECTION('',(0.0,-1.0,0.0));
#1510=DIRECTION('',(-1.0,-0.0,-0.0));
#1511=CARTESIAN_POINT('',(-20.0001,0.0,0.0));
#1512=DIRECTION('',(1.0,0.0,0.0));
#1513=DIRECTION('',(0.0,-1.0,0.0));
#1514=DIRECTION('',(0.707106781186548,-0.707106781186547,8.65927457071935E-017));
#1515=CARTESIAN_POINT('',(-25.0001,0.0,0.0));
#1516=DIRECTION('',(1.0,0.0,0.0));
#1517=DIRECTION('',(0.0,-1.0,0.0));
#1518=DIRECTION('',(-0.707106781186548,-0.707106781186547,8.65927457071935E-017));
#1519=CARTESIAN_POINT('',(-25.0001,0.0,0.0));
#1520=DIRECTION('',(1.0,0.0,0.0));
#1521=DIRECTION('',(0.0,-1.0,0.0));
#1522=CARTESIAN_POINT('',(-24.5001,0.0,0.0));
#1523=DIRECTION('',(1.0,0.0,0.0));
#1524=DIRECTION('',(0.0,-1.0,0.0));
#1525=CARTESIAN_POINT('',(-20.0001,0.0,0.0));
#1526=DIRECTION('',(1.0,0.0,0.0));
#1527=DIRECTION('',(0.0,-1.0,0.0));
#1528=DIRECTION('',(-1.0,0.0,0.0));
#1529=CARTESIAN_POINT('',(51.5,0.0,0.0));
#1530=DIRECTION('',(-1.0,0.0,0.0));
#1531=DIRECTION('',(0.0,0.0,-1.0));
#1532=DIRECTION('',(1.0,-0.0,-0.0));
#1533=CARTESIAN_POINT('',(47.0,0.0,0.0));
#1534=DIRECTION('',(-1.0,0.0,0.0));
#1535=DIRECTION('',(0.0,0.0,-1.0));
#1536=DIRECTION('',(-0.707106781186548,8.65927457071935E-017,-0.707106781186547));
#1537=CARTESIAN_POINT('',(52.0,0.0,0.0));
#1538=DIRECTION('',(-1.0,0.0,0.0));
#1539=DIRECTION('',(0.0,0.0,-1.0));
#1540=DIRECTION('',(0.707106781186548,8.65927457071935E-017,-0.707106781186547));
#1541=CARTESIAN_POINT('',(52.0,0.0,0.0));
#1542=DIRECTION('',(-1.0,0.0,0.0));
#1543=DIRECTION('',(0.0,0.0,-1.0));
#1544=CARTESIAN_POINT('',(51.5,0.0,0.0));
#1545=DIRECTION('',(-1.0,0.0,0.0));
#1546=DIRECTION('',(0.0,0.0,-1.0));
#1547=CARTESIAN_POINT('',(47.0,0.0,0.0));
#1548=DIRECTION('',(-1.0,0.0,0.0));
#1549=DIRECTION('',(0.0,0.0,-1.0));
ENDSEC;
END-ISO-10303-21;
